<?xml version="1.0" standalone="no"?>
<!DOCTYPE svg PUBLIC "-//W3C//DTD SVG 1.1//EN" "http://www.w3.org/Graphics/SVG/1.1/DTD/svg11.dtd" >
<svg>
<metadata>
Created by FontForge 20090914 at Fri Oct  4 02:35:50 2013
 By www-data
Switzerland is a CopyRight (c) 1991, Corel Systems Corporation. All rights reserved
</metadata>
<defs>
<font id="SwitzerlandPSMT" horiz-adv-x="557" >
  <font-face 
    font-family="Switzerland"
    font-weight="400"
    font-stretch="normal"
    units-per-em="1000"
    panose-1="2 0 5 3 0 0 0 0 0 0"
    ascent="800"
    descent="-200"
    x-height="523"
    cap-height="719"
    bbox="-19 -229 1000 949"
    underline-thickness="50"
    underline-position="-75"
    unicode-range="U+0020-U+2122"
  />
<missing-glyph horiz-adv-x="500" 
d="M40 667h420v-667h-420v667zM60 647v-627h380v627h-380z" />
    <glyph glyph-name=".notdef" horiz-adv-x="500" 
d="M40 667h420v-667h-420v667zM60 647v-627h380v627h-380z" />
    <glyph glyph-name="space" unicode=" " horiz-adv-x="277" 
 />
    <glyph glyph-name="exclam" unicode="!" horiz-adv-x="277" 
d="M90 0v102h96v-102h-96zM90 477v242h96v-240l-24 -309h-49z" />
    <glyph glyph-name="quotedbl" unicode="&#x22;" horiz-adv-x="355" 
d="M143 463h-75v256h75v-256zM211 719h74v-256h-74v256z" />
    <glyph glyph-name="numbersign" unicode="#" 
d="M131 209h-104l10 64h102l19 141h-103l9 65h104l29 209h67l-30 -209h125l28 209h68l-29 -209h103l-9 -65h-104l-20 -141h104l-10 -64h-101l-30 -209h-66l29 209h-127l-27 -209h-66zM225 414l-20 -141h125l20 141h-125z" />
    <glyph glyph-name="dollar" unicode="$" 
d="M252 408v231c-36.667 0 -65.667 -11.667 -87 -35s-32 -51 -32 -83c0 -32.667 11.667 -58.167 35 -76.5s51.333 -30.5 84 -36.5zM299 307v-253.999c35.333 0 66.333 11.5 93 34.5s40 51.833 40 86.5c0 36.667 -11.667 64.667 -35 84s-56 35.666 -98 48.999zM502 521.001
l-83.998 0.000976562c-4.66699 32.667 -14.834 58.5 -30.501 77.5s-45.167 32.5 -88.5 40.5v-241c70 -18.667 124.5 -45.334 163.5 -80.001s58.167 -75.667 57.5 -123c0 -52.667 -11.833 -95 -35.5 -127s-52.334 -54.667 -86.001 -68s-66.834 -20 -99.501 -20v-95h-47v95
c-147.333 9.33301 -221 87 -221 233h88c3.33301 -54.667 14 -93 32 -115s51.667 -37 101 -45v265c-42 10 -77.5 21.667 -106.5 35s-53 33 -72 59s-28.5 60.667 -28.5 104c0 54 19.833 100 59.5 138s88.834 57 147.501 57v64h47v-64c131.333 -12 199 -75.333 203 -190z" />
    <glyph glyph-name="percent" unicode="%" horiz-adv-x="889" 
d="M219 -20l394 723h57l-397 -723h-54zM207 625c-30.667 0 -54.332 -9.66797 -70.999 -29.001s-25.667 -43 -27 -71c1.33301 -28 10.5 -51.833 27.5 -71.5s40.5 -29.5 70.5 -29.5c32 0.666992 57 10.834 75 30.501s27 43.167 27 70.5c0 28.667 -8.83301 52.5 -26.5 71.5
s-42.834 28.5 -75.501 28.5zM209.002 694.999c48 0 88.667 -16.667 122 -50s50 -74 50 -122c0 -47.333 -16.833 -87.333 -50.5 -120s-74.167 -49 -121.5 -49c-46.667 0 -86.667 16.333 -120 49s-50 72.667 -50 120s16.5 87.833 49.5 121.5s73.167 50.5 120.5 50.5z
M674.002 257.999c-30 0 -53.498 -9.50195 -70.498 -28.502s-26.167 -42.833 -27.5 -71.5c1.33301 -28 10.666 -51.667 27.999 -71s40.666 -28.666 69.999 -27.999c31.333 0 56 9.83301 74 29.5s27 42.834 27 69.501c0 18 -3.83301 34.667 -11.5 50s-19 27.5 -34 36.5
s-33.5 13.5 -55.5 13.5zM676.004 327.997c30.667 0 59.167 -7.49902 85.5 -22.499s47 -35.667 62 -62s22.5 -54.833 22.5 -85.5c0 -32 -7.5 -60.833 -22.5 -86.5s-36 -46.334 -63 -62.001s-55.167 -23.5 -84.5 -23.5c-46 0 -85.833 16.833 -119.5 50.5
s-50.5 74.167 -50.5 121.5c0 48 16.667 88.333 50 121s73.333 49 120 49z" />
    <glyph glyph-name="ampersand" unicode="&#x26;" horiz-adv-x="668" 
d="M416 141l-162 197c-44 -28 -75.5 -52.833 -94.5 -74.5s-28.5 -49.5 -28.5 -83.5c0 -40 14.5 -69.833 43.5 -89.5s57.5 -29.5 85.5 -29.5c66.667 0 118.667 26.667 156 80zM285 439c60 40 90 81.334 90 124.001c0 28 -7.83301 48.333 -23.5 61s-33.167 19 -52.5 19
c-32 0 -54 -8.5 -66 -25.5s-18 -34.833 -18 -53.5c0 -38.667 23.333 -80.334 70 -125.001zM518 154.001l126.996 -154.001h-114l-68 82c-28 -32.667 -57.333 -57.167 -88 -73.5s-71 -24.5 -121 -24.5c-82.667 0 -142 26.667 -178 80c-21.333 34.667 -33 73.334 -35 116.001
c2 39.333 10.333 73 25 101c22 38.667 68.333 77.667 139 117c-21.333 27.333 -36.666 48 -45.999 62s-16.666 29.167 -21.999 45.5s-8 34.166 -8 53.499c0 43.333 15.167 80.833 45.5 112.5s71.833 47.5 124.5 47.5s92.834 -14.5 120.501 -43.5s41.5 -64.167 41.5 -105.5
c0 -44 -11.5 -79.5 -34.5 -106.5s-54.5 -54.5 -94.5 -82.5l131 -156c10.667 30.667 20.334 68.334 29.001 113.001h82c-5.33301 -62.667 -24 -124 -56 -184z" />
    <glyph glyph-name="quotesingle" unicode="'" horiz-adv-x="223" 
d="M105 611h-52v108h103v-108c0 -35.333 -8.33301 -67 -25 -95s-42.667 -45.667 -78 -53v47c36 6 53.333 39.667 52 101z" />
    <glyph glyph-name="parenleft" unicode="(" horiz-adv-x="332" 
d="M236 732h61.001c-44 -77.333 -78.333 -154.333 -103 -231s-36 -159.667 -34 -249c4.66699 -156.667 51 -309.667 139 -459l-57 -2c-38 57.333 -67.167 104 -87.5 140s-36.833 72 -49.5 108s-21.834 73.333 -27.501 112s-8.83398 82.667 -9.50098 132
c-2 70.667 14.333 149.667 49 237s74.334 158 119.001 212z" />
    <glyph glyph-name="parenright" unicode=")" horiz-adv-x="332" 
d="M33 -207c46 78 80.499 154.167 103.499 228.5s34.167 149.166 33.5 224.499c-2 90.667 -10.667 165.334 -26 224.001s-52.333 146 -111 262h59l41.5 -65.5c23 -36.333 43.667 -73.333 62 -111s34.5 -82.167 48.5 -133.5s20.667 -103.333 20 -156
c0 -78.667 -16.667 -162.667 -50 -252s-72.666 -163 -117.999 -221h-63z" />
    <glyph glyph-name="asterisk" unicode="*" horiz-adv-x="389" 
d="M146 557l-107 35l20 54l105 -39v112h59v-112l105 39l22 -54l-110 -35l69 -92l-49 -35l-67 95l-64 -93l-49 33z" />
    <glyph glyph-name="plus" unicode="+" horiz-adv-x="584" 
d="M256 289v215h72v-215h217v-74h-217v-215h-72v215h-217v74h217z" />
    <glyph glyph-name="comma" unicode="," horiz-adv-x="277" 
d="M86 0v105h103v-105c0 -84 -34.333 -133.333 -103 -148v46c34 1.33301 52.333 35.333 55 102h-55z" />
    <glyph glyph-name="hyphen" unicode="-" horiz-adv-x="332" 
d="M289 322v-90h-246v90h246z" />
    <glyph glyph-name="period" unicode="." horiz-adv-x="277" 
d="M86 0v109h111v-109h-111z" />
    <glyph glyph-name="slash" unicode="/" horiz-adv-x="277" 
d="M295 736l-246 -756h-67l247 756h66z" />
    <glyph glyph-name="zero" unicode="0" 
d="M39 400c6.66699 62.667 18.168 116.002 34.501 160.002s41.166 78.667 74.499 104s76.333 38.333 129 39c46.667 1.33301 87.334 -10 122.001 -34s62.5 -61.833 83.5 -113.5s32.833 -118.834 35.5 -201.501c4 -109.333 -14.5 -198.833 -55.5 -268.5
s-102.833 -104.834 -185.5 -105.501c-82 0 -142.5 34 -181.5 102s-59.167 150 -60.5 246c1.33301 17.333 2.16602 30.833 2.49902 40.5s0.833008 20.167 1.5 31.5zM131.001 361.002c-1.33301 -89.333 8.99902 -162 30.999 -218s59.667 -84 113 -84
c99.333 1.33301 149 94.333 149 279c0 64.667 -6 118.5 -18 161.5s-29.333 74.333 -52 94s-49 29.5 -79 29.5c-49.333 0 -85.666 -25.5 -108.999 -76.5s-35 -112.833 -35 -185.5z" />
    <glyph glyph-name="one" unicode="1" 
d="M264 0v498h-164v70c38.667 3.33301 67.834 7 87.501 11s39.667 15.333 60 34s34.166 48.667 41.499 90h70v-703h-95z" />
    <glyph glyph-name="two" unicode="2" 
d="M25 0c2.66699 79.333 21.502 140.999 56.502 184.999s86.333 84.833 154 122.5s114 66.334 139 86.001s37.5 51.834 37.5 96.501c0.666992 41.333 -11.333 73.5 -36 96.5s-57.667 35.167 -99 36.5c-45.333 1.33301 -80.833 -12.334 -106.5 -41.001
s-38.834 -72.334 -39.501 -131.001h-88c-2 41.333 4.66699 81.333 20 120s41.833 70.334 79.5 95.001s85.167 37 142.5 37c62.667 0 116.334 -18.5 161.001 -55.5s64.667 -90.833 60 -161.5c-2.66699 -57.333 -19 -102 -49 -134s-75.833 -64.167 -137.5 -96.5
s-106.834 -58.833 -135.501 -79.5s-48.334 -52 -59.001 -94h381v-82h-481z" />
    <glyph glyph-name="three" unicode="3" 
d="M424 162c8.66699 64 -3.50098 107 -36.501 129s-78.833 33 -137.5 33h-27v74c58.667 -4.66699 103.167 2.83301 133.5 22.5s45.5 48.167 45.5 85.5c0 36 -12.5 64.5 -37.5 85.5s-56.167 31.5 -93.5 31.5c-42 0 -74.833 -14.167 -98.5 -42.5s-35.5 -64.166 -35.5 -107.499
h-86c-4.66699 60.667 12.5 114.167 51.5 160.5s97.167 69.5 174.5 69.5c45.333 0 84.166 -8 116.499 -24s57.166 -37.333 74.499 -64s26 -54 26 -82c0 -88.667 -30.667 -142.667 -92 -162c42 -9.33301 72.167 -32 90.5 -68s27.5 -77 27.5 -123
c0 -27.333 -9.66699 -57.333 -29 -90s-47.833 -59.667 -85.5 -81s-83.5 -31 -137.5 -29c-67.333 2.66699 -121.666 20.167 -162.999 52.5s-65.333 93.166 -72 182.499h92c0 -76.667 28 -125.667 84 -147c22.667 -5.33301 42.334 -9 59.001 -11
c38.667 0.666992 73.334 11 104.001 31s48 44.667 52 74z" />
    <glyph glyph-name="four" unicode="4" 
d="M23 256l323 447h74v-457h103v-76h-103v-170h-88v170h-309v86zM105 246h227v322z" />
    <glyph glyph-name="five" unicode="5" 
d="M31 174h92.001c10 -78 60.667 -117 152 -117c36.667 0 69.334 13.167 98.001 39.5s44.334 61.833 47.001 106.5c2 56 -11.667 98 -41 126s-67 42 -113 42c-28 0 -54.167 -5.33301 -78.5 -16s-42.5 -26.667 -54.5 -48l-76 4l52 377h366v-86h-299l-30 -194
c28.667 28.667 73.667 43 135 43c40 0 78.167 -9.5 114.5 -28.5s65.166 -44.833 86.499 -77.5s32 -69.667 32 -111c0 -72 -19.833 -131.333 -59.5 -178s-101.834 -72 -186.501 -76c-42.667 -2 -81.834 5.16699 -117.501 21.5s-64 39.5 -85 69.5s-32.5 64.333 -34.5 103z" />
    <glyph glyph-name="six" unicode="6" 
d="M37 322c4 62 10.668 117.171 20.001 165.504s33 95.5 71 141.5s95 70.667 171 74c32 1.33301 63.667 -5.5 95 -20.5s57.166 -37 77.499 -66s30.5 -62.5 30.5 -100.5h-86c-4.66699 34.667 -17.834 61.5 -39.501 80.5s-49.5 27.833 -83.5 26.5
c-44 0 -81.833 -22.333 -113.5 -67s-48.5 -111.667 -50.5 -201c14.667 28.667 36 51.5 64 68.5s62.667 25.5 104 25.5c40.667 -0.666992 78.334 -11.334 113.001 -32.001s61.667 -48.334 81 -83.001s29 -72.334 29 -113.001c0 -64.667 -20.5 -121 -61.5 -169
s-94.167 -72 -159.5 -72c-84 1.33301 -149.833 31.666 -197.5 90.999s-69.167 143 -64.5 251zM141.001 203.004c0.666992 -43.333 16.5 -78.499 47.5 -105.499s65.833 -39.833 104.5 -38.5c32 0 62.167 13.167 90.5 39.5s42.5 64.5 42.5 114.5
c0 53.333 -13.667 92.666 -41 117.999s-60 38 -98 38c-48 0 -84.833 -15.167 -110.5 -45.5s-37.5 -70.5 -35.5 -120.5z" />
    <glyph glyph-name="seven" unicode="7" 
d="M135 0c22 127.333 62.001 243.332 120.001 347.999s114.333 189.334 169 254.001h-387v86h486v-77c-74.667 -94.667 -133.334 -182 -176.001 -262s-81 -196.333 -115 -349h-97z" />
    <glyph glyph-name="eight" unicode="8" 
d="M492 521c0 -44.667 -8.33301 -76.6689 -25 -96.002s-38.334 -36.666 -65.001 -51.999c42 -17.333 71.833 -41.666 89.5 -72.999s26.5 -63.666 26.5 -96.999c0 -42.667 -10.667 -81.334 -32 -116.001s-50 -61.667 -86 -81s-75.667 -29 -119 -29
c-63.333 0 -120.666 19.333 -171.999 58c-48 38 -72 93.333 -72 166c0 81.333 39.667 138.666 119 171.999c-63.333 24 -95 69.667 -95 137c0 28 6.5 56.833 19.5 86.5s35.5 54.834 67.5 75.501s74.333 31 127 31c72.667 0 127 -18.333 163 -55s54 -79 54 -127zM277 329.998
c-47.333 0 -83.5 -13 -108.5 -39s-37.5 -56.667 -37.5 -92c0 -36 11.5 -68.333 34.5 -97s61.5 -43 115.5 -43c94 0 141 44.667 141 134c0 44.667 -13.667 78.667 -41 102s-62 35 -104 35zM275 405.998c38.667 0 69.167 10.667 91.5 32s33.5 48.666 33.5 81.999
c0 26 -10.167 49.667 -30.5 71s-53.5 32 -99.5 32c-42 0 -72.167 -11 -90.5 -33s-27.5 -47.333 -27.5 -76c0 -31.333 12 -57.166 36 -77.499s53 -30.5 87 -30.5z" />
    <glyph glyph-name="nine" unicode="9" 
d="M41 447c-0.666992 46 6.83496 88.5029 22.502 127.503s40.167 69.667 73.5 92s74.333 34.5 123 36.5c62.667 2 113.167 -12.333 151.5 -43s65 -69 80 -115s22.5 -94.333 22.5 -145c0 -142 -21.833 -245.833 -65.5 -311.5s-99.5 -101.834 -167.5 -108.501
c-62 -4.66699 -115.667 9 -161 41s-69 81 -71 147h88c8.66699 -74.667 49 -113 121 -115c43.333 0 79.666 21 108.999 63s49 107.667 59 197c-44 -52 -100.667 -79 -170 -81c-57.333 1.33301 -107.333 21.666 -150 60.999s-64.334 90.666 -65.001 153.999zM133.002 477.003
c0 -108.667 43.667 -164 131 -166c2.66699 1.33301 4.33398 2 5.00098 2h1c48 1.33301 84.833 18.333 110.5 51s35.5 76.667 29.5 132c-6 44 -21.833 76.5 -47.5 97.5s-56.167 31.5 -91.5 31.5c-42.667 -2 -76.334 -16.667 -101.001 -44s-37 -62 -37 -104z" />
    <glyph glyph-name="colon" unicode=":" horiz-adv-x="277" 
d="M191 105v-105h-105v105h105zM191 516v-106h-105v106h105z" />
    <glyph glyph-name="semicolon" unicode=";" horiz-adv-x="277" 
d="M86 0l-0.000976562 105h105v-97c0 -59.333 -11.167 -98.833 -33.5 -118.5s-46.166 -32.167 -71.499 -37.5v46c35.333 3.33301 53 37.333 53 102h-53zM190.999 410h-105v106h105v-106z" />
    <glyph glyph-name="less" unicode="&#x3c;" horiz-adv-x="584" 
d="M47 217v70l488 207v-80l-390 -162l390 -162v-80z" />
    <glyph glyph-name="equal" unicode="=" horiz-adv-x="584" 
d="M545 391v-75h-506v75h506zM545 188v-73h-506v73h506z" />
    <glyph glyph-name="greater" unicode="&#x3e;" horiz-adv-x="584" 
d="M47 414v80l488 -207v-70l-488 -207v80l391 162z" />
    <glyph glyph-name="question" unicode="?" 
d="M221 0v102h95v-102h-95zM55 492c0 70.667 19.665 127.668 58.998 171.001s96.333 64.666 171 63.999c64 0 113.833 -18.833 149.5 -56.5s53.5 -82.834 53.5 -135.501c0 -27.333 -5.16699 -51.333 -15.5 -72s-28.166 -44.667 -53.499 -72s-40.666 -44.333 -45.999 -51
c-27.333 -28 -44.5 -52.667 -51.5 -74s-10.5 -49.333 -10.5 -84h-88c-1.33301 35.333 1.66699 67 9 95s20.333 52.333 39 73l88 91c22.667 22.667 34 53.334 34 92.001c0 34 -9.33301 62 -28 84s-46.667 33 -84 33c-92 0 -138 -52.667 -138 -158h-88z" />
    <glyph glyph-name="at" unicode="@" horiz-adv-x="1016" 
d="M596 334c11.333 35.333 17 64 17 86c0 53.333 -28 80 -84 80c-32 0 -59.5 -11.167 -82.5 -33.5s-40.5 -49.5 -52.5 -81.5s-19 -64.667 -21 -98c2.66699 -53.333 32 -80 88 -80c28.667 0 55 12.167 79 36.5s42.667 54.5 56 90.5zM643 494l19 63h68l-25.5 -90.5
l-24.5 -86.5l-28.5 -100.5c-7 -25 -10.5 -41.5 -10.5 -49.5c0 -19.333 6.33301 -29 19 -29c34.667 0 67.167 22.333 97.5 67s45.5 94 45.5 148c0 52 -12.5 97.667 -37.5 137s-58.667 69.666 -101 90.999s-89.5 32 -141.5 32c-57.333 0 -109.333 -14.5 -156 -43.5
s-83 -68.167 -109 -117.5s-39 -102.666 -39 -159.999c0 -88 30 -162 90 -222s134 -90 222 -90c46 0 91 10.167 135 30.5s79.667 47.833 107 82.5h69c-32.667 -53.333 -77.334 -96 -134.001 -128s-116.334 -48 -179.001 -48c-51.333 0 -100.666 9.66699 -147.999 29
s-88.666 46.5 -123.999 81.5s-62.666 76 -81.999 123s-29 96.167 -29 147.5c0 68 17.167 130.833 51.5 188.5s80.5 103.167 138.5 136.5s120.333 50 187 50c62.667 0 120.334 -13.333 173.001 -40s94.667 -64 126 -112s47 -101.333 47 -160
c0 -55.333 -13.167 -105.333 -39.5 -150s-58.5 -79 -96.5 -103s-72.667 -36 -104 -36c-18 0 -33.167 5.66699 -45.5 17s-18.833 27 -19.5 47l-1 -2c-40 -41.333 -80 -62 -120 -62c-42 0 -77.167 15.833 -105.5 47.5s-42.5 69.167 -42.5 112.5c0 44 9.66699 87.5 29 130.5
s46.666 78.167 81.999 105.5s75.666 41 120.999 41c52 0 90.667 -26 116 -78z" />
    <glyph glyph-name="A" unicode="A" horiz-adv-x="668" 
d="M14 0l269 719h112l259 -719h-107l-70 209h-289l-75 -209h-99zM219 295h222l-107 318z" />
    <glyph glyph-name="B" unicode="B" horiz-adv-x="668" 
d="M72 0l0.000976562 719h324c36 0 68.667 -7.66699 98 -23s52.666 -36.666 69.999 -63.999s26 -59 26 -95c0 -35.333 -8.66699 -66.166 -26 -92.499s-40 -45.5 -68 -57.5c84 -28.667 127 -81.334 129 -158.001c2 -46.667 -6.83301 -87.334 -26.5 -122.001
s-46.667 -61.167 -81 -79.5s-72.833 -27.5 -115.5 -27.5h-330zM170.001 82h224.999c43.333 0 76.5 12.333 99.5 37s34.5 52.667 34.5 84c1.33301 40.667 -9.66699 72.667 -33 96s-67.666 35 -132.999 35h-193v-252zM170 414l189 -0.000976562c48.667 0 83 10.333 103 31
s30.667 44.334 32 71.001c6.66699 79.333 -39 119 -137 119h-187v-221z" />
    <glyph glyph-name="C" unicode="C" horiz-adv-x="723" 
d="M43 354c-2 43.333 2.5 87.3281 13.5 131.995s29.667 85.667 56 123s61.166 67.666 104.499 90.999s94.666 36 153.999 38c36.667 1.33301 76.334 -4.16699 119.001 -16.5s81.834 -36.666 117.501 -72.999s57.834 -85.166 66.501 -146.499h-94
c-10.667 50 -33.834 87.167 -69.501 111.5s-77.5 36.5 -125.5 36.5c-5.33301 0 -13.5 -0.5 -24.5 -1.5s-21.167 -2.16699 -30.5 -3.5c-38 -6.66699 -70.833 -22.5 -98.5 -47.5s-49 -57.167 -64 -96.5s-22.5 -84.666 -22.5 -135.999c0 -100.667 20.833 -175.667 62.5 -225
s92.834 -74.666 153.501 -75.999c2.66699 1.33301 4.33398 2 5.00098 2h1c64 0.666992 114.167 18.5 150.5 53.5s59.166 83.167 68.499 144.5h96c-9.33301 -81.333 -41.5 -148.5 -96.5 -201.5s-125.167 -80.5 -210.5 -82.5c-72.667 -2 -133.334 13.333 -182.001 46
s-85 77.834 -109 135.501s-37.667 121.834 -41 192.501z" />
    <glyph glyph-name="D" unicode="D" horiz-adv-x="723" 
d="M80 719h301.002c47.333 0 92.666 -12.333 135.999 -37s79.666 -62.167 108.999 -112.5s45.333 -111.833 48 -184.5c3.33301 -58 -5.5 -117 -26.5 -177s-53.5 -109.667 -97.5 -149s-99 -59 -165 -59h-305v719zM178.002 82h201c62.667 0 111.167 29.5 145.5 88.5
s50.833 127.833 49.5 206.5c0 74 -17 135.5 -51 184.5s-86 73.5 -156 73.5h-189v-553z" />
    <glyph glyph-name="E" unicode="E" horiz-adv-x="668" 
d="M615 86v-86h-529v719h523v-88h-427v-219h394v-86h-394v-240h433z" />
    <glyph glyph-name="F" unicode="F" horiz-adv-x="611" 
d="M182 326v-326h-96v719h496v-88h-400v-219h353v-86h-353z" />
    <glyph glyph-name="G" unicode="G" horiz-adv-x="777" 
d="M389 301l0.00195312 81.999h314v-383h-62l-24 92c-24 -34 -57.167 -61.167 -99.5 -81.5s-87.833 -30.5 -136.5 -30.5c-116.667 0 -201.5 34.833 -254.5 104.5s-79.5 163.167 -79.5 280.5c0 97.333 29.667 183.5 89 258.5s143 112.5 251 112.5
c47.333 0 93.166 -8.83301 137.499 -26.5s81.666 -44.5 111.999 -80.5s48.5 -79 54.5 -129h-93c-14 56 -41 95 -81 117s-84.667 33 -134 33c-43.333 0 -83 -11.333 -119 -34s-64.667 -56.167 -86 -100.5s-32 -96.5 -32 -156.5c0 -91.333 19 -162.333 57 -213
c40.667 -57.333 100.667 -87 180 -89c57.333 2 107.333 19.333 150 52c31.333 24.667 52.5 52.334 63.5 83.001s16.5 67 16.5 109h-224z" />
    <glyph glyph-name="H" unicode="H" horiz-adv-x="723" 
d="M549 420v299h97v-719h-97v334h-375v-334h-98v719h98v-299h375z" />
    <glyph glyph-name="I" unicode="I" horiz-adv-x="277" 
d="M188 719v-719h-98v719h98z" />
    <glyph glyph-name="J" unicode="J" horiz-adv-x="500" 
d="M16 230l90.999 0.00195312v-50c0 -78 36 -117 108 -117c76.667 0 115 41.667 115 125v531h98v-526c0 -76.667 -20.167 -131.334 -60.5 -164.001s-89.166 -49 -146.499 -49c-74.667 0 -127.5 18.667 -158.5 56s-46.5 78.666 -46.5 123.999v70z" />
    <glyph glyph-name="K" unicode="K" horiz-adv-x="668" 
d="M172 252v-252h-96v719h96v-350l349 350h133l-299 -291l307 -428h-125l-252 359z" />
    <glyph glyph-name="L" unicode="L" 
d="M172 719v-633h365v-86h-461v719h96z" />
    <glyph glyph-name="M" unicode="M" horiz-adv-x="832" 
d="M762 0h-96v604l-201 -604h-96l-205 602v-602h-92v719h139l207 -610l205 610h139v-719z" />
    <glyph glyph-name="N" unicode="N" horiz-adv-x="723" 
d="M553 137v582h93v-719h-109l-367 580v-580h-94v719h115z" />
    <glyph glyph-name="O" unicode="O" horiz-adv-x="777" 
d="M639 359c0 57.333 -10 107.668 -30 151.001s-49.167 77.5 -87.5 102.5s-82.5 37.5 -132.5 37.5s-94.167 -12.333 -132.5 -37s-67.5 -58.834 -87.5 -102.501s-30 -94.167 -30 -151.5c0 -86.667 22.5 -157.167 67.5 -211.5s105.833 -81.5 182.5 -81.5
s137.5 27.167 182.5 81.5s67.5 124.833 67.5 211.5zM738 359.002c0 -58.667 -11.3311 -116.834 -33.998 -174.501s-60.334 -106.167 -113.001 -145.5s-120 -59 -202 -59s-149.5 19.667 -202.5 59s-90.833 87.833 -113.5 145.5s-34 115.834 -34 174.501
c0 58 11.333 115.833 34 173.5s60.167 106 112.5 145s120.166 58.5 203.499 58.5s151 -19.5 203 -58.5s89.333 -87.333 112 -145s34 -115.5 34 -173.5z" />
    <glyph glyph-name="P" unicode="P" horiz-adv-x="668" 
d="M182 635v-250h193c97.333 0 146 43.667 146 131c0 79.333 -47.333 119 -142 119h-197zM182 303v-303.002h-96v719h322c42 0 79.5 -8.83301 112.5 -26.5s58 -42.167 75 -73.5s25.5 -65.666 25.5 -102.999c0 -57.333 -17.5 -107.166 -52.5 -149.499
s-88.5 -63.5 -160.5 -63.5h-226z" />
    <glyph glyph-name="Q" unicode="Q" horiz-adv-x="777" 
d="M420 146l49 61.001l92 -70c26 26.667 45.5 58.834 58.5 96.501s19.5 79.5 19.5 125.5c0 57.333 -10 107.666 -30 150.999s-49.167 77.5 -87.5 102.5s-82.5 37.5 -132.5 37.5s-94.167 -12.333 -132.5 -37s-67.5 -58.834 -87.5 -102.501s-30 -94.167 -30 -151.5
c0 -86.667 22.5 -157.167 67.5 -211.5s105.833 -81.5 182.5 -81.5c41.333 0 76.333 8 105 24zM732 2.00098l-47.999 -59l-110 86c-49.333 -32.667 -111 -49 -185 -49c-82 0 -149.5 19.667 -202.5 59s-90.833 87.833 -113.5 145.5s-34 115.834 -34 174.501
c0 58 11.333 115.833 34 173.5s60.167 106 112.5 145s120.166 58.5 203.499 58.5s151 -19.5 203 -58.5s89.333 -87.333 112 -145s34 -115.5 34 -173.5c0 -50.667 -8.33301 -101.334 -25 -152.001s-42.667 -93.667 -78 -129z" />
    <glyph glyph-name="R" unicode="R" horiz-adv-x="723" 
d="M88 0l0.000976562 719h342c63.333 0 116.833 -17.667 160.5 -53s65.5 -83.666 65.5 -144.999c0 -78 -33 -133.667 -99 -167c40.667 -12.667 65.5 -36.334 74.5 -71.001s13.5 -83.334 13.5 -146.001c0 -19.333 0.833008 -37.833 2.5 -55.5s5.5 -32.167 11.5 -43.5
s14.333 -18.666 25 -21.999v-16h-120c-8.66699 26.667 -13 70.167 -13 130.5s-7.33301 104.833 -22 133.5s-48.334 43 -101.001 43h-244v-307h-96zM184.001 391l246 -0.000976562c40.667 0 71.5 11.5 92.5 34.5s32.5 51.833 34.5 86.5
c1.33301 34.667 -7.66699 63.834 -27 87.501s-50 35.5 -92 35.5h-254v-244z" />
    <glyph glyph-name="S" unicode="S" horiz-adv-x="668" 
d="M600 508l-90.001 -0.000976562c-2.66699 51.333 -21.5 88.5 -56.5 111.5s-76.167 34.5 -123.5 34.5c-42.667 0 -80.667 -9 -114 -27s-50 -51.333 -50 -100c0 -47.333 28.667 -77 86 -89l205 -47c108 -27.333 162 -92 162 -194c0 -53.333 -14 -96.166 -42 -128.499
s-63.167 -55.166 -105.5 -68.499s-86.833 -20 -133.5 -20c-92 0 -163.167 21 -213.5 63s-75.5 105 -75.5 189h90c0 -59.333 19.667 -102.333 59 -129s86 -40 140 -40c47.333 0 90.333 9 129 27s58 49.333 58 94c0 37.333 -10.333 64.333 -31 81s-61 32 -121 46
c-9.33301 2.66699 -37.666 9.16699 -84.999 19.5s-86 22.166 -116 35.499s-54.167 32 -72.5 56s-27.5 55.333 -27.5 94c0 62 21 114.167 63 156.5s103.667 63.5 185 63.5c178.667 0 272 -76 280 -228z" />
    <glyph glyph-name="T" unicode="T" horiz-adv-x="611" 
d="M14 631v88h584v-88h-244v-631h-98v631h-242z" />
    <glyph glyph-name="U" unicode="U" horiz-adv-x="723" 
d="M78 232l-0.000976562 487h98v-469c0 -54 15.833 -98.167 47.5 -132.5s76.834 -51.5 135.501 -51.5c56.667 0 102.167 16.833 136.5 50.5s51.5 77.5 51.5 131.5v471h98v-483c0 -75.333 -27.167 -136.833 -81.5 -184.5s-125.5 -71.5 -213.5 -71.5
c-46.667 0 -91 9.83301 -133 29.5s-75.667 48.5 -101 86.5s-38 83.333 -38 136z" />
    <glyph glyph-name="V" unicode="V" horiz-adv-x="668" 
d="M334 105l203 614h109l-261 -719h-104l-261 719h107z" />
    <glyph glyph-name="W" unicode="W" horiz-adv-x="943" 
d="M305 0h-102l-187 719h105l133 -586l164 586h105l165 -586l132 586h108l-190 -719h-101l-164 596z" />
    <glyph glyph-name="X" unicode="X" horiz-adv-x="668" 
d="M18 0l257 369l-242 350h123l182 -276l183 276h116l-241 -352l252 -367h-121l-193 295l-199 -295h-117z" />
    <glyph glyph-name="Y" unicode="Y" horiz-adv-x="668" 
d="M285 0v287l-271 432h113l205 -346l207 346h113l-271 -432v-287h-96z" />
    <glyph glyph-name="Z" unicode="Z" horiz-adv-x="611" 
d="M23 0v80l440 551h-408v88h533v-84l-443 -549h443v-86h-565z" />
    <glyph glyph-name="bracketleft" unicode="[" horiz-adv-x="277" 
d="M63 -197v920h187v-73h-109v-775h109v-72h-187z" />
    <glyph glyph-name="backslash" unicode="\" horiz-adv-x="277" 
d="M227 -20l-245 756h67l246 -756h-68z" />
    <glyph glyph-name="bracketright" unicode="]" horiz-adv-x="277" 
d="M27 -197v72h108v775h-108v73h188v-920h-188z" />
    <glyph glyph-name="asciicircum" unicode="^" horiz-adv-x="469" 
d="M482 264h-76l-172 343l-171 -343h-79l215 424h71z" />
    <glyph glyph-name="underscore" unicode="_" 
d="M557 -125h-557v49h557v-49z" />
    <glyph glyph-name="grave" unicode="`" horiz-adv-x="332" 
d="M143 594l-129 140h107l90 -140h-68z" />
    <glyph glyph-name="a" unicode="a" 
d="M35 141c3.33301 42.667 17.4971 77.8311 42.4971 105.498s71.5 46.5 139.5 56.5c24.667 1.33301 49.834 2.83301 75.501 4.5s47.5 7.16699 65.5 16.5s27 25.666 27 48.999c0 58.667 -40.333 89.334 -121 92.001c-75.333 0 -115.666 -34 -120.999 -102h-82
c-3.33301 26 2.33398 52.833 17.001 80.5s38.167 50.167 70.5 67.5s72.166 26 119.499 26c57.333 0 105.5 -11.167 144.5 -33.5s58.5 -56.833 58.5 -103.5v-298c0 -15.333 1.5 -26 4.5 -32s9.83301 -9.66699 20.5 -11c12 2.66699 23 4.33398 33 5.00098v-64
c-10 -6.66699 -29.333 -10 -58 -10c-51.333 0 -78.666 26 -81.999 78c-49.333 -53.333 -112 -81.333 -188 -84c-47.333 0 -86.833 14.833 -118.5 44.5s-48.167 63.834 -49.5 102.501c1.33301 2.66699 2 6 2 10zM382.997 267.997
c-6.66699 -8.66699 -36.833 -17.168 -90.5 -25.501s-95.667 -19.666 -126 -33.999s-43.5 -39.5 -39.5 -75.5c5.33301 -49.333 36 -75.333 92 -78c39.333 2.66699 76.5 14.167 111.5 34.5s52.5 48.5 52.5 84.5v94z" />
    <glyph glyph-name="b" unicode="b" 
d="M141 0h-84v719h88v-262c35.333 53.333 86.666 80 153.999 80c34 0 64.833 -6.66699 92.5 -20s50.834 -31.5 69.501 -54.5s32.834 -50.167 42.501 -81.5s14.5 -66 14.5 -104c0 -77.333 -18.333 -145.5 -55 -204.5s-95.334 -88.5 -176.001 -88.5
c-64.667 0 -112.667 26.667 -144 80h-2v-64zM426 262c0 131.333 -47.668 196.999 -143.001 196.999c-94.667 0 -142 -74.333 -142 -223c0 -62 15 -106.667 45 -134s63 -41 99 -41c46.667 0 81.834 18.333 105.501 55s35.5 85.334 35.5 146.001z" />
    <glyph glyph-name="c" unicode="c" horiz-adv-x="500" 
d="M33 305c4.66699 46.667 17.5029 87.332 38.5029 121.999s49 61.5 84 80.5s73.5 28.833 115.5 29.5c47.333 2.66699 91.666 -10 132.999 -38s65.666 -78.333 72.999 -151h-84c-6 40 -21 69 -45 87s-52 25.333 -84 22c-48 -2.66699 -84 -22.167 -108 -58.5
s-35 -88.5 -33 -156.5c2 -62 16 -108 42 -138s57.667 -44.333 95 -43c32 0 60.667 11.167 86 33.5s40.333 52.166 45 89.499h86c-4.66699 -40.667 -16.334 -76.167 -35.001 -106.5s-43 -53.166 -73 -68.499s-66.333 -23.666 -109 -24.999c-53.333 0 -105 19 -155 57
s-75.333 108.333 -76 211c2.66699 24 4 41.667 4 53z" />
    <glyph glyph-name="d" unicode="d" 
d="M498 719l-0.000976562 -719h-82v72c-18.667 -33.333 -44.5 -56.833 -77.5 -70.5s-57.833 -19.5 -74.5 -17.5c-80 0 -138.167 29.5 -174.5 88.5s-54.5 127.167 -54.5 204.5c0 75.333 19.167 137.5 57.5 186.5s91.5 73.5 159.5 73.5c42.667 0 75.334 -8.5 98.001 -25.5
s42 -37.833 58 -62.5v270h90zM124.999 262c0 -60.667 12 -109.333 36 -146s59 -55 105 -55c36 0 69 13.667 99 41s45 72 45 134c0 148.667 -47.333 223 -142 223c-95.333 0 -143 -65.667 -143 -197z" />
    <glyph glyph-name="e" unicode="e" 
d="M420 164l90.0049 -0.000976562c-3.33301 -19.333 -12.5 -43.166 -27.5 -71.499s-37.167 -52.5 -66.5 -72.5c-34.667 -24 -82.334 -36 -143.001 -36c-80.667 0 -142.334 30.667 -185.001 92c-32.667 47.333 -49 104 -49 170c0 98 26 173 78 225
c23.333 24 49.5 42.333 78.5 55s59.5 19 91.5 19c39.333 0 75.666 -9.83301 108.999 -29.5s59.666 -47.5 78.999 -83.5c27.333 -53.333 41 -120 41 -200h-383c0 -114 50.667 -171 152 -171c38 0 69.667 11.5 95 34.5s38.666 45.833 39.999 68.5zM133.005 302.999
l291 0.00195312c-2 45.333 -14.5 82.666 -37.5 111.999s-58.833 44 -107.5 44c-39.333 0 -73.5 -15.833 -102.5 -47.5s-43.5 -67.834 -43.5 -108.501z" />
    <glyph glyph-name="f" unicode="f" horiz-adv-x="277" 
d="M86 0v449h-72v74h72v82c2.66699 48 13.667 81.167 33 99.5s46 27.5 80 27.5c8.66699 0 29.667 -1.66699 63 -5v-79h-33c-16.667 0 -30 -3.66699 -40 -11s-15 -22.333 -15 -45v-69h88v-74h-88v-449h-88z" />
    <glyph glyph-name="g" unicode="g" 
d="M31 244c2.66699 93.333 25.167 166.499 67.5 219.499s98.833 79.5 169.5 79.5c50.667 0 94.667 -26.667 132 -80v64h88v-504c0 -89.333 -22.333 -153.666 -67 -192.999s-101 -59 -169 -59c-48 0 -94.167 12 -138.5 36s-66.5 67 -66.5 129h86c-2 -22.667 8.5 -42 31.5 -58
s50.167 -24.667 81.5 -26c43.333 0 79.833 13.333 109.5 40s44.5 68 44.5 124v31c-45.333 -48 -98.666 -72 -159.999 -72c-58.667 0 -108.834 26 -150.501 78s-61.167 115.667 -58.5 191zM125 267.999c0 -71.333 12.832 -125.334 38.499 -162.001s56.5 -55.667 92.5 -57
c5.33301 1.33301 10.333 2 15 2c36.667 5.33301 67.334 26.833 92.001 64.5s37 85.834 37 144.501c0 42 -7 77.5 -21 106.5s-32.5 50.167 -55.5 63.5s-46.833 18.333 -71.5 15c-34 -3.33301 -63.5 -20.833 -88.5 -52.5s-37.833 -73.167 -38.5 -124.5z" />
    <glyph glyph-name="h" unicode="h" 
d="M490 355v-354.999h-88v342c0 38 -7.33301 67 -22 87s-41.667 30 -81 30c-41.333 0 -76.166 -14 -104.499 -42s-42.5 -72 -42.5 -132v-285h-88v719h88v-266c28 33.333 50.5 55.666 67.5 66.999s46.167 17 87.5 17c51.333 0 94.666 -13.5 129.999 -40.5
s53 -74.167 53 -141.5z" />
    <glyph glyph-name="i" unicode="i" horiz-adv-x="223" 
d="M64 717h90v-100h-90v100zM64 521h90v-521h-90v521z" />
    <glyph glyph-name="j" unicode="j" horiz-adv-x="223" 
d="M154 523l0.000976562 -601c0 -36 -8 -67.167 -24 -93.5s-52.667 -39.5 -110 -39.5c-6.66699 0 -19.334 1.33301 -38.001 4v76h20c27.333 0 44.833 3.5 52.5 10.5s11.5 24.5 11.5 52.5v591h88zM154.001 719v-102h-88v102h88z" />
    <glyph glyph-name="k" unicode="k" horiz-adv-x="500" 
d="M152 0h-86v719h86v-418l223 222h113l-199 -195l211 -328h-113l-162 264l-73 -67v-197z" />
    <glyph glyph-name="l" unicode="l" horiz-adv-x="223" 
d="M154 719v-719h-88v719h88z" />
    <glyph glyph-name="m" unicode="m" horiz-adv-x="832" 
d="M64 0l-0.000976562 523h82v-74h2c42 58.667 95 88 159 88c42 0 73.167 -8.5 93.5 -25.5s35.833 -36.5 46.5 -58.5c26.667 30 50.834 51.5 72.501 64.5s50.834 19.5 87.501 19.5c38.667 0 75.5 -12.833 110.5 -38.5s52.5 -71.5 52.5 -137.5v-361h-88v338
c0 80.667 -32.667 121 -98 121c-36.667 0 -66.334 -14 -89.001 -42s-34 -61 -34 -99v-318h-88v361c0 27.333 -6.16699 50.5 -18.5 69.5s-33.5 28.5 -63.5 28.5c-20 0 -40.667 -5.16699 -62 -15.5s-39.5 -28.5 -54.5 -54.5s-22.5 -60.667 -22.5 -104v-285h-88z" />
    <glyph glyph-name="n" unicode="n" 
d="M64 0l0.000976562 523.002h84v-76c8 16.667 26.333 36 55 58s64.667 32.667 108 32c57.333 -0.666992 101.5 -16.834 132.5 -48.501s46.5 -76.167 46.5 -133.5v-355h-88v324c0 41.333 -7.33301 74.166 -22 98.499s-41.667 36.5 -81 36.5
c-44.667 0 -80.334 -15 -107.001 -45s-40 -68.333 -40 -115v-299h-88z" />
    <glyph glyph-name="o" unicode="o" 
d="M35 262c0 74 20.833 138.333 62.5 193s101.5 82 179.5 82c78.667 0 139 -27.333 181 -82s63 -119 63 -193c0 -74.667 -21.167 -139.667 -63.5 -195s-102.5 -83 -180.5 -83c-77.333 0 -137 27.833 -179 83.5s-63 120.5 -63 194.5zM125 262c0 -50 11.667 -96 35 -138
s62.333 -63 117 -63c56 0 95.5 21 118.5 63s34.5 88 34.5 138c0 28 -4.33301 57.167 -13 87.5s-24.5 56.5 -47.5 78.5s-53.833 33 -92.5 33c-55.333 0 -94.5 -20.833 -117.5 -62.5s-34.5 -87.167 -34.5 -136.5z" />
    <glyph glyph-name="p" unicode="p" 
d="M57 -207l0.000976562 730h84v-76c11.333 24.667 32.166 46.5 62.499 65.5s62.833 28.5 97.5 28.5c68 0 121.167 -28.333 159.5 -85s57.5 -120.667 57.5 -192c0 -46.667 -8.83301 -91.667 -26.5 -135s-43.5 -78.833 -77.5 -106.5s-75 -41.167 -123 -40.5
c-32 0.666992 -58.167 6.16699 -78.5 16.5s-42.5 29.833 -66.5 58.5v-264h-89zM141.001 240c2 -63.333 17 -109.001 45 -137.001s62.333 -42 103 -42s74.167 19.5 100.5 58.5s38.5 90.833 36.5 155.5c-2 64 -15 110.333 -39 139s-59.333 43.667 -106 45
c-48.667 0 -84.5 -20.667 -107.5 -62s-33.833 -93.666 -32.5 -156.999z" />
    <glyph glyph-name="q" unicode="q" 
d="M494 523l-0.000976562 -730h-88v262c-24.667 -47.333 -72 -71 -142 -71c-80 0 -138.167 29.5 -174.5 88.5s-54.5 127.167 -54.5 204.5c0 75.333 19.167 137.5 57.5 186.5s91.5 73.5 159.5 73.5c42.667 0 75.334 -8.5 98.001 -25.5s42 -37.833 58 -62.5h2v74h84z
M409.999 236c0 148.667 -47.333 223.001 -142 223.001c-95.333 0 -143 -65.667 -143 -197c0 -60.667 12 -109.334 36 -146.001s59 -55 105 -55c36 0 69 13.667 99 41s45 72 45 134z" />
    <glyph glyph-name="r" unicode="r" horiz-adv-x="332" 
d="M76 0v522.999h84v-89c22 35.333 45.5 61.833 70.5 79.5s58.833 24.834 101.5 21.501v-92c-46 4 -85.5 -6.33301 -118.5 -31s-49.5 -57.667 -49.5 -99v-313h-88z" />
    <glyph glyph-name="s" unicode="s" horiz-adv-x="500" 
d="M447 373l-85.999 -0.00390625c0 58.667 -41 88 -123 88c-23.333 0 -46.666 -5.16699 -69.999 -15.5s-35 -29.833 -35 -58.5c0 -14 3.33301 -25.167 10 -33.5s17.167 -15.166 31.5 -20.499s32.5 -10.333 54.5 -15c78 -19.333 136.5 -37.833 175.5 -55.5
s58.5 -52.5 58.5 -104.5c0 -53.333 -19.333 -95.666 -58 -126.999s-88.334 -47 -149.001 -47c-90 0 -149.167 18.167 -177.5 54.5s-44.166 79.5 -47.499 129.5h86c3.33301 -71.333 49.666 -107 138.999 -107c34.667 0 63.167 6.83301 85.5 20.5s33.5 34.167 33.5 61.5
c0 20.667 -7.16699 35.834 -21.5 45.501s-41.833 19.834 -82.5 30.501l-78.5 18c-25.667 6 -49.334 14.167 -71.001 24.5s-39.167 24.333 -52.5 42s-20 40.167 -20 67.5c0 54 18.833 95.167 56.5 123.5s84.5 42.5 140.5 42.5c80 0 133.5 -18.833 160.5 -56.5
s40.5 -73.5 40.5 -107.5z" />
    <glyph glyph-name="t" unicode="t" horiz-adv-x="277" 
d="M78 63l-0.000976562 378h-70v86h70v143h88v-143h86v-86h-86v-332c2 -18 6.16699 -30.5 12.5 -37.5s15.833 -11.167 28.5 -12.5c21.333 2.66699 36.333 4 45 4v-79c-29.333 -2.66699 -50.666 -4 -63.999 -4c-32.667 0 -58.5 6.5 -77.5 19.5s-29.833 34.167 -32.5 63.5z
" />
    <glyph glyph-name="u" unicode="u" 
d="M70 133v393.997h86v-379c0 -32 8.5 -56.167 25.5 -72.5s37.833 -25.166 62.5 -26.499c6.66699 1.33301 14.667 2 24 2c22.667 4.66699 44 14 64 28s36.333 32.333 49 55s19 48.334 19 77.001v316h88v-527h-88v55c-46.667 -52 -107 -78 -181 -78
c-45.333 0 -81.5 14.333 -108.5 43s-40.5 66.334 -40.5 113.001z" />
    <glyph glyph-name="v" unicode="v" horiz-adv-x="500" 
d="M199 0l-191 523h101l137 -429l150 429h96l-199 -523h-94z" />
    <glyph glyph-name="w" unicode="w" horiz-adv-x="723" 
d="M256 0h-92l-150 523h95l100 -412l104 412h97l106 -412l105 412h88l-152 -523h-92l-106 404z" />
    <glyph glyph-name="x" unicode="x" horiz-adv-x="500" 
d="M195 270l-175 253h113l121 -185l121 185h107l-177 -255l185 -268h-113l-129 197l-127 -197h-111z" />
    <glyph glyph-name="y" unicode="y" horiz-adv-x="500" 
d="M252 96l141 426.999h95l-110.5 -309.5l-76.5 -203.5c-25.333 -64.667 -43.833 -109.5 -55.5 -134.5s-23.667 -44.167 -36 -57.5s-26.666 -22.166 -42.999 -26.499s-39.833 -6.5 -70.5 -6.5c-7.33301 0 -19.666 2.66699 -36.999 8v80c12 -5.33301 29.333 -8 52 -8
c16 0 28.167 2.5 36.5 7.5s16.166 15 23.499 30s18.666 42.167 33.999 81.5l-195 539h99z" />
    <glyph glyph-name="z" unicode="z" horiz-adv-x="500" 
d="M459 451l-313 -379h323v-72h-438v68l315 381h-291v74h404v-72z" />
    <glyph glyph-name="braceleft" unicode="{" horiz-adv-x="334" 
d="M123 -80l-0.00195312 182c0 38 -7.5 69.333 -22.5 94s-34.833 37.334 -59.5 38.001v61c27.333 -0.666992 47.833 12.166 61.5 38.499s20.5 55.166 20.5 86.499v182c0 80.667 42.333 121 127 121c10 0 17.833 -0.166992 23.5 -0.5s11.5 -0.833008 17.5 -1.5v-65h-43
c-12 0 -22.833 -7.83301 -32.5 -23.5s-14.5 -32.5 -14.5 -50.5v-174c0 -31.333 -8.66699 -61.333 -26 -90s-38.666 -46.667 -63.999 -54c28.667 -11.333 50.834 -30.666 66.501 -57.999s23.5 -57.666 23.5 -90.999v-172c0 -22 3.83301 -39.833 11.5 -53.5
s18.834 -20.5 33.501 -20.5h45v-66h-66c-26.667 0 -50.334 11.667 -71.001 35s-31 50.666 -31 81.999z" />
    <glyph glyph-name="bar" unicode="|" horiz-adv-x="260" 
d="M94 -20v756h72v-756h-72z" />
    <glyph glyph-name="braceright" unicode="}" horiz-adv-x="334" 
d="M291 293l-0.00195312 -58.999c-22 0 -40.833 -12.5 -56.5 -37.5s-23.5 -55.833 -23.5 -92.5v-172c0 -38.667 -10.167 -69.834 -30.5 -93.501s-44.833 -35.5 -73.5 -35.5h-66v66h45c30 0 45 27.333 45 82v168c2.66699 44.667 13.834 78.334 33.501 101.001
s37.834 36.667 54.501 42v2c-16 4.66699 -34 18.667 -54 42s-31.333 56 -34 98v170c0 54.667 -15 82 -45 82h-45v67h66c28.667 0 53.167 -11.833 73.5 -35.5s30.5 -54.834 30.5 -93.501v-174c0 -35.333 8 -65.333 24 -90s34.667 -37 56 -37z" />
    <glyph glyph-name="asciitilde" unicode="~" horiz-adv-x="584" 
d="M486 326l37 -56.001c-36 -57.333 -77.667 -86 -125 -86c-28 0 -64 11.333 -108 34s-80.667 34 -110 34c-32.667 0 -60.667 -24 -84 -72l-35 56c29.333 57.333 71 86 125 86c22 0 45.167 -5.66699 69.5 -17l73 -34c24.333 -11.333 47.5 -17 69.5 -17
c18 0 33.5 6.33301 46.5 19s26.833 30.334 41.5 53.001z" />
    <glyph glyph-name="exclamdown" unicode="&#xa1;" horiz-adv-x="332" 
d="M117 420v103h98v-103h-98zM141 352h50l24 -311v-236h-98v236z" />
    <glyph glyph-name="cent" unicode="&#xa2;" 
d="M211 78l108.999 381.002c-8.66699 4 -19.667 6 -33 6c-50.667 0 -88 -23 -112 -69s-36 -96.667 -36 -152c0 -36.667 6.83301 -70.334 20.5 -101.001s30.834 -52.334 51.501 -65.001zM509.999 344.002l-84.002 -0.00195312c-13.333 54 -35.666 88.333 -66.999 103
l-111 -386c8.66699 -2.66699 21.667 -5.33398 39 -8.00098c36.667 2 67.167 14.333 91.5 37s40.833 53.334 49.5 92.001h86c-4.66699 -35.333 -17.167 -68.833 -37.5 -100.5s-46.333 -56.5 -78 -74.5s-65.5 -27 -101.5 -27c-13.333 0 -36.666 2.66699 -69.999 8l-32 -103
h-41l35 113c-92 43.333 -138 125.333 -138 246c0 118 33 201.333 99 250c44 31.333 91 47 141 47c18 0 35 -2 51 -6l23 88h39l-25 -100c27.333 -9.33301 54.5 -28.166 81.5 -56.499s43.5 -69.166 49.5 -122.499z" />
    <glyph glyph-name="sterling" unicode="&#xa3;" 
d="M203 379l168.002 -0.00292969v-63h-139c6.66699 -21.333 10 -43.333 10 -66c0 -30 -10.333 -61.5 -31 -94.5s-50.667 -63.5 -90 -91.5l2 2v-2c41.333 24 82.333 36 123 36c21.333 0 51.333 -5.66699 90 -17s68.667 -17.666 90 -18.999c28.667 2 52.667 13.333 72 34
l41 -67c-42.667 -31.333 -82.334 -47 -119.001 -47c-22 0 -57.333 7.16699 -106 21.5s-85.667 21.5 -111 21.5c-36 0 -75 -13 -117 -39l-49 69c46 30.667 77.667 62.834 95 96.501s26 63.834 26 90.501c0 20.667 -6.33301 44.667 -19 72h-106v63h69
c-15.333 33.333 -26.333 58.333 -33 75s-10 36.667 -10 60c0 51.333 19.5 98.333 58.5 141s101.5 64 187.5 64c71.333 0 125.166 -21.333 161.499 -64s54.5 -93 54.5 -151v-14h-87v8c0 42 -12.833 76.667 -38.5 104s-59.167 41 -100.5 41c-48 0 -83.833 -14 -107.5 -42
s-35.5 -55 -35.5 -81c0 -32 17 -79 51 -141z" />
    <glyph glyph-name="currency" unicode="&#xa4;" 
d="M480 604l47 -49.001l-54 -55c33.333 -39.333 50 -88.666 50 -147.999c0 -58.667 -16.667 -109.667 -50 -153l54 -56l-45 -45l-56 58c-38 -36 -87.667 -54 -149 -54c-60.667 0 -110 18 -148 54l-55 -58l-45 45l53 56c-32.667 42.667 -49 93.667 -49 153
c0 60 16.333 109.333 49 148l-55 55l49 49l57 -57c38 34 86 51 144 51c58.667 0 107 -17 145 -51zM105 351.999c0 -49.333 17.166 -91.668 51.499 -127.001s74.5 -53 120.5 -53c32 0 60.833 8 86.5 24s46.334 37.833 62.001 65.5s23.5 57.834 23.5 90.501
c0 32 -7.66699 61.167 -23 87.5s-36 47.5 -62 63.5s-55 24 -87 24c-47.333 0 -87.833 -17.5 -121.5 -52.5s-50.5 -75.833 -50.5 -122.5z" />
    <glyph glyph-name="yen" unicode="&#xa5;" 
d="M41 326v57h154l-193 305h100l175 -295l176 295h100l-194 -305h157v-57h-194v-84h194v-58h-194v-184h-88v184h-193v58h193v84h-193z" />
    <glyph glyph-name="brokenbar" unicode="&#xa6;" horiz-adv-x="330" 
d="M94 -20v756h72v-756h-72z" />
    <glyph glyph-name="section" unicode="&#xa7;" 
d="M459 555l-84.002 -0.00195312c-4.66699 70 -38 105 -100 105c-22.667 0 -43.5 -6.33301 -62.5 -19s-28.5 -33 -28.5 -61c0 -17.333 5.83301 -32.666 17.5 -45.999s29.834 -28 54.501 -44l146 -86c34.667 -20 61.667 -42.167 81 -66.5s29 -55.5 29 -93.5
s-9.33301 -69.333 -28 -94s-44 -46.667 -76 -66c35.333 -37.333 53 -75.666 53 -114.999c0 -48 -18.667 -86.667 -56 -116s-79.333 -44 -126 -44c-59.333 0 -107 15.5 -143 46.5s-54 77.833 -54 140.5h88c0 -74 32.667 -111 98 -111c70 0 105 27.333 105 82
c0 28.667 -18.333 55.334 -55 80.001l-211 139c-42.667 29.333 -64 70.333 -64 123c0 40 8.5 71.833 25.5 95.5s41.833 44.5 74.5 62.5c-18.667 19.333 -31.167 35.833 -37.5 49.5s-9.5 30.167 -9.5 49.5c0 44 14.833 83.333 44.5 118s74.5 52 134.5 52
c30 0 58.833 -5.16699 86.5 -15.5s50.834 -28.833 69.501 -55.5s28 -63.334 28 -110.001zM366.998 319.998l-79.5 49.501l-94.5 58.5c-45.333 -23.333 -68 -56 -68 -98c0 -36 15 -64 45 -84l189 -123c24 15.333 41.5 30.166 52.5 44.499s16.5 33.5 16.5 57.5
c0 37.333 -20.333 69 -61 95z" />
    <glyph glyph-name="dieresis" unicode="&#xa8;" horiz-adv-x="332" 
d="M131 705v-101h-92v101h92zM293 705v-101h-92v101h92z" />
    <glyph glyph-name="copyright" unicode="&#xa9;" horiz-adv-x="736" 
d="M369 -20c-67.333 0 -130.834 16.5 -190.501 49.5s-107 78.833 -142 137.5s-52.5 122.667 -52.5 192s17.333 133 52 191s82 103.5 142 136.5s123.667 49.5 191 49.5s130.833 -16.5 190.5 -49.5s106.667 -78 141 -135s51.5 -121.167 51.5 -192.5
s-17.333 -135.833 -52 -193.5s-81.667 -103 -141 -136s-122.666 -49.5 -189.999 -49.5zM60.999 359c0 -89.333 29.667 -164.333 89 -225s132.333 -91 219 -91c55.333 0 106.833 13.667 154.5 41s85 65.333 112 114s40.5 102.334 40.5 161.001s-13.5 112.167 -40.5 160.5
s-64.333 86.166 -112 113.499s-99.167 41 -154.5 41s-107 -13.833 -155 -41.5s-85.5 -65.5 -112.5 -113.5s-40.5 -101.333 -40.5 -160zM499.999 289l68 0.00195312c-8 -48 -29.333 -87 -64 -117s-75 -45 -121 -45c-44.667 0 -83.667 10.167 -117 30.5
s-59.333 48.166 -78 83.499s-28 75.333 -28 120c0 43.333 8.83301 82.833 26.5 118.5s43.167 63.334 76.5 83.001s72 29.5 116 29.5c49.333 0 91.666 -13.833 126.999 -41.5s56 -65.834 62 -114.501h-68c-6 27.333 -20 49 -42 65s-48.333 24 -79 24
c-46 0 -81.333 -15 -106 -45s-37 -69.667 -37 -119c0 -46.667 13.5 -86.334 40.5 -119.001s62.5 -49 106.5 -49c30.667 0 56.834 9 78.501 27s34.5 41 38.5 69z" />
    <glyph glyph-name="ordfeminine" unicode="&#xaa;" horiz-adv-x="369" 
d="M346 453l-0.00195312 -43.001c-6.66699 -1.33301 -12.5 -2.66602 -17.5 -3.99902s-9.83301 -2 -14.5 -2c-22 0 -37.167 4.66699 -45.5 14s-13.166 21.666 -14.499 36.999c-35.333 -34 -76.333 -51 -123 -51c-31.333 0 -57.166 8.66699 -77.499 26s-30.5 39.333 -30.5 66
c0 36.667 14.167 62.834 42.5 78.501s62.5 23.5 102.5 23.5c26.667 1.33301 46.667 5 60 11s20 18.333 20 37c0 10.667 -6.5 20 -19.5 28s-31.833 12 -56.5 12c-48 0 -74 -18.333 -78 -55h-53c2 70 49 105 141 105c28.667 0 57 -6 85 -18s42 -35.333 42 -70v-177
c0 -12.667 5 -20 15 -22c10.667 2.66699 18 4 22 4zM144.998 456.999c27.333 0 51.668 7 73.001 21s31.333 31.667 30 53v39c-6.66699 -6.66699 -37.334 -13 -92.001 -19c-46.667 -6.66699 -70 -21.667 -70 -45c0 -32.667 19.667 -49 59 -49zM35 351.999h295v-49h-295v49z
" />
    <glyph glyph-name="guillemotleft" unicode="&#xab;" 
d="M254 195v-88l-158 123v92l158 123v-88l-106 -80zM459 195v-88l-158 123v92l158 123v-88l-105 -80z" />
    <glyph glyph-name="logicalnot" unicode="&#xac;" horiz-adv-x="584" 
d="M471 107v209h-432v75h506v-284h-74z" />
    <glyph glyph-name="registered" unicode="&#xae;" horiz-adv-x="736" 
d="M369 -20c-67.333 0 -130.834 16.5 -190.501 49.5s-107 78.833 -142 137.5s-52.5 122.667 -52.5 192s17.333 133 52 191s82 103.5 142 136.5s123.667 49.5 191 49.5s130.833 -16.5 190.5 -49.5s106.667 -78 141 -135s51.5 -121.167 51.5 -192.5
s-17.333 -135.833 -52 -193.5s-81.667 -103 -141 -136s-122.666 -49.5 -189.999 -49.5zM60.999 359c0 -89.333 29.667 -164.333 89 -225s132.333 -91 219 -91c55.333 0 106.833 13.667 154.5 41s85 65.333 112 114s40.5 102.334 40.5 161.001s-13.5 112.167 -40.5 160.5
s-64.333 86.166 -112 113.499s-99.167 41 -154.5 41s-107 -13.833 -155 -41.5s-85.5 -65.5 -112.5 -113.5s-40.5 -101.333 -40.5 -160zM288.999 330v-189h-66v435h168c52 0 90.333 -9.83301 115 -29.5s37 -50.834 37 -93.501c0 -71.333 -37 -111.666 -111 -120.999l123 -191
h-75l-115 189h-76zM288.999 385l80 0.000976562c33.333 0 59.333 4.66699 78 14s28 28.666 28 57.999c0 42.667 -32 64 -96 64h-90v-136z" />
    <glyph glyph-name="plusminus" unicode="&#xb1;" horiz-adv-x="584" 
d="M256 344v162h72v-162h217v-73h-217v-162h-72v162h-217v73h217zM39 0v72h506v-72h-506z" />
    <glyph glyph-name="twosuperior" unicode="&#xb2;" horiz-adv-x="332" 
d="M78 553l-59.998 0.000976562c0 60 16.5 100 49.5 120s69.167 30 108.5 30c27.333 0 52.166 -5.33301 74.499 -16s39.833 -25.334 52.5 -44.001s19 -41 19 -67c0 -42 -10.5 -71.333 -31.5 -88s-57.833 -38.834 -110.5 -66.501s-86.667 -54.167 -102 -79.5h244v-61h-318
c2 34 6.83301 61 14.5 81s18.167 36.167 31.5 48.5s31.166 24.333 53.499 36l64.5 33.5c33.333 19.333 55.666 34.333 66.999 45s17 28.334 17 53.001c2 18 -3.66699 33.667 -17 47s-35.666 20 -66.999 20c-36 0 -59.5 -9.5 -70.5 -28.5s-17.5 -40.167 -19.5 -63.5z" />
    <glyph glyph-name="threesuperior" unicode="&#xb3;" horiz-adv-x="332" 
d="M4 410l67.9971 -0.000976562c1.33301 -23.333 7.83301 -42.833 19.5 -58.5s33.834 -23.5 66.501 -23.5c64 0 96 23.333 96 70c0 31.333 -9.5 51.333 -28.5 60s-44.167 13 -75.5 13h-21v50h27c54.667 0 82 22.333 82 67c0 38 -26.667 57 -80 57
c-51.333 0 -78.666 -27 -81.999 -81h-60c0 37.333 11.5 69.833 34.5 97.5s61.5 41.5 115.5 41.5c43.333 0 77.666 -10.167 102.999 -30.5s38 -47.166 38 -80.499c-0.666992 -14 -3.16699 -27 -7.5 -39s-11.166 -22.5 -20.499 -31.5s-19.666 -15.5 -30.999 -19.5
c50.667 -13.333 76 -45.333 76 -96c0 -38 -13.833 -70.167 -41.5 -96.5s-69.167 -39.5 -124.5 -39.5c-50 0 -86.833 10.833 -110.5 32.5s-38.167 57.5 -43.5 107.5z" />
    <glyph glyph-name="acute" unicode="&#xb4;" horiz-adv-x="332" 
d="M318 734l-129 -140h-68l90 140h107z" />
    <glyph glyph-name="mu" unicode="&#xb5;" 
d="M488 0h-84.001v78c-18 -31.333 -40 -54.833 -66 -70.5s-59.333 -23.5 -100 -23.5c-21.333 0 -37.5 2.33301 -48.5 7s-18.833 9.66699 -23.5 15s-8 9.33301 -10 12v-225h-90v730h90v-347c0 -76.667 33.333 -115 100 -115c50.667 0 87.334 17.333 110.001 52s34 75 34 121
v289h88v-523z" />
    <glyph glyph-name="paragraph" unicode="&#xb6;" horiz-adv-x="537" 
d="M232 -174v518.001c-62.667 0 -114 17.667 -154 53s-60 78.666 -60 129.999c0 128 76.667 192 230 192h248v-893h-72v832h-119v-832h-73z" />
    <glyph glyph-name="periodcentered" unicode="&#xb7;" horiz-adv-x="277" 
d="M139 314c15.333 0 29.5 -6.16699 42.5 -18.5s19.5 -26.833 19.5 -43.5c0 -16 -6.16699 -30.5 -18.5 -43.5s-26.833 -19.5 -43.5 -19.5c-16 0 -30.5 6.5 -43.5 19.5s-19.5 27.5 -19.5 43.5c0 18.667 6 33.667 18 45s27 17 45 17z" />
    <glyph glyph-name="cedilla" unicode="&#xb8;" horiz-adv-x="332" 
d="M78 -86l64.999 85.999h46l-46 -63c8.66699 1.33301 22.334 3.33301 41.001 6c21.333 -2 39 -9.66699 53 -23s21 -31 21 -53c0 -27.333 -10.5 -49.833 -31.5 -67.5s-49.5 -26.5 -85.5 -26.5c-30.667 0 -62.667 8 -96 24l16 39c34.667 -10.667 58.667 -16 72 -16
c32.667 0 49 14.333 49 43c0 24.667 -13.667 38.334 -41 41.001c-6.66699 -0.666992 -15 -2.16699 -25 -4.5s-16.667 -3.83301 -20 -4.5z" />
    <glyph glyph-name="onesuperior" unicode="&#xb9;" horiz-adv-x="332" 
d="M150 576h-106.999v47c40 2 68.167 7.66699 84.5 17s29.166 30.333 38.499 63h55v-422h-71v295z" />
    <glyph glyph-name="ordmasculine" unicode="&#xba;" horiz-adv-x="365" 
d="M340 570c0 -58.667 -15.167 -101 -45.5 -127s-67.833 -39 -112.5 -39c-44 0 -81.5 13 -112.5 39s-46.5 68.333 -46.5 127c0 60 15.5 102.667 46.5 128s68.5 38 112.5 38s81.333 -12.667 112 -38s46 -68 46 -128zM273 570c0 30 -6.16699 56.833 -18.5 80.5
s-36.5 35.5 -72.5 35.5c-34 0 -57.5 -11.833 -70.5 -35.5s-19.5 -50.5 -19.5 -80.5c0 -29.333 6.5 -55.5 19.5 -78.5s36.5 -34.5 70.5 -34.5c36 0 60.167 11.5 72.5 34.5s18.5 49.167 18.5 78.5zM35 352h295v-49h-295v49z" />
    <glyph glyph-name="guillemotright" unicode="&#xbb;" 
d="M254 230l-158 -123v88l105 82l-105 80v88l158 -123v-92zM459 230l-158 -123v88l105 82l-105 80v88l158 -123v-92z" />
    <glyph glyph-name="onequarter" unicode="&#xbc;" horiz-adv-x="834" 
d="M418 94v60l207 268h64v-272h67v-56h-67v-94h-64v94h-207zM625 150v188h-2l-143 -188h145zM652 703l-312 -512l-129 -211h-57l311 512l131 211h56zM180 580h-108v43c40.667 2 69.5 8 86.5 18s29.167 30.667 36.5 62h53v-422h-68v299z" />
    <glyph glyph-name="onehalf" unicode="&#xbd;" horiz-adv-x="834" 
d="M617 703l-312 -512l-131 -211h-57l313 512l131 211h56zM150 576h-106.999v47c40 2 68.167 7.66699 84.5 17s29.166 30.333 38.499 63h55v-422h-71v295zM529.001 270l-59.9971 0.000976562c0 60 16.5 100.333 49.5 121s69.167 31 108.5 31
c27.333 0 52.166 -5.33301 74.499 -16s39.833 -25.334 52.5 -44.001s19 -41 19 -67c0 -34 -10 -61.333 -30 -82s-49.667 -40.334 -89 -59.001l-45 -23c-38 -21.333 -64.667 -44.666 -80 -69.999h244v-61h-320c3.33301 75.333 38.666 130.666 105.999 165.999l58 33
c32 16.667 54.333 30.834 67 42.501s19 30.167 19 55.5c1.33301 18 -4.83398 33.5 -18.501 46.5s-35.5 19.5 -65.5 19.5c-55.333 0 -85.333 -31 -90 -93z" />
    <glyph glyph-name="threequarters" unicode="&#xbe;" horiz-adv-x="834" 
d="M473 94v60l207 268h62v-272h69v-56h-69v-94h-62v94h-207zM678 338l-143 -188h145v188h-2zM713 703l-313 -512l-130 -211h-57l312 512l129 211h59zM45 410h68.0029c1.33301 -23.333 7.66602 -42.833 18.999 -58.5s33.666 -23.5 66.999 -23.5c64 0 96 23.333 96 70
c0 31.333 -9.66699 51.333 -29 60s-44.333 13 -75 13h-23v50h27c54.667 0 82 22.333 82 67c0 38 -26.667 57 -80 57c-50 0 -76.667 -27 -80 -81h-62c0 38 11.667 70.667 35 98s62.333 41 117 41c43.333 0 77.666 -10.167 102.999 -30.5s38 -47.166 38 -80.499
c0 -46 -19.667 -75.333 -59 -88v-2c50.667 -13.333 76 -45.333 76 -96c0 -38.667 -14 -71 -42 -97s-70 -39 -126 -39c-32.667 0 -60.667 6.33301 -84 19c-40 19.333 -62.667 59.666 -68 120.999z" />
    <glyph glyph-name="questiondown" unicode="&#xbf;" horiz-adv-x="611" 
d="M439 33l88.0029 -0.00195312c-2.66699 -46.667 -8.33398 -83.5 -17.001 -110.5s-29.667 -53.167 -63 -78.5c-36.667 -30 -84.667 -45 -144 -45c-38.667 0 -74.334 7.66699 -107.001 23s-58.5 37.666 -77.5 66.999s-28.5 64.333 -28.5 105c0 22 2.83301 41 8.5 57
s14.667 31.5 27 46.5s31.833 35.833 58.5 62.5c36 35.333 59.667 63.333 71 84s16.666 53.334 15.999 98.001h88c0 -53.333 -6.16699 -92.666 -18.5 -117.999s-37.833 -57.666 -76.5 -96.999c-36 -38 -58.333 -64 -67 -78s-13 -34.333 -13 -61c0 -27.333 9.66699 -53 29 -77
s50 -36 92 -36c89.333 0 134 52.667 134 158zM264.003 421.998v103h97v-103h-97z" />
    <glyph glyph-name="Agrave" unicode="&#xc0;" horiz-adv-x="668" 
d="M14 0l269 719h112l259 -719h-107l-70 209h-289l-75 -209h-99zM219 295h222l-107 318zM311 787l-129 140h107l90 -140h-68z" />
    <glyph glyph-name="Aacute" unicode="&#xc1;" horiz-adv-x="668" 
d="M14 0l269 719h112l259 -719h-107l-70 209h-289l-75 -209h-99zM219 295h222l-107 318zM504 927l-129 -140h-68l90 140h107z" />
    <glyph glyph-name="Acircumflex" unicode="&#xc2;" horiz-adv-x="668" 
d="M14 0l269 719h112l259 -719h-107l-70 209h-289l-75 -209h-99zM219 295h222l-107 318zM334 879l-66 -92h-80l99 140h94l98 -140h-79z" />
    <glyph glyph-name="Atilde" unicode="&#xc3;" horiz-adv-x="668" 
d="M14 0l269 719h112l259 -719h-107l-70 209h-289l-75 -209h-99zM219 295h222l-107 318zM473 916h49.001c-3.33301 -31.333 -13.833 -57.5 -31.5 -78.5s-40.5 -31.5 -68.5 -31.5c-16.667 0 -40.334 6.16699 -71.001 18.5s-55.667 18.5 -75 18.5c-22 0 -37.667 -15 -47 -45
h-47c10 72 44.667 108 104 108c19.333 0 44.333 -5.66699 75 -17s51 -18 61 -20c28 0 45 15.667 51 47z" />
    <glyph glyph-name="Adieresis" unicode="&#xc4;" horiz-adv-x="668" 
d="M14 0l269 719h112l259 -719h-107l-70 209h-289l-75 -209h-99zM219 295h222l-107 318zM299 898v-101h-92v101h92zM461 898v-101h-92v101h92z" />
    <glyph glyph-name="Aring" unicode="&#xc5;" horiz-adv-x="668" 
d="M14 0l269 719h112l259 -719h-107l-70 209h-289l-75 -209h-99zM219 295h222l-107 318zM334 949c18.667 0 34.667 -4 48 -12s24 -18.667 32 -32s12 -29.333 12 -48c0 -25.333 -8.66699 -47 -26 -65s-39.333 -27 -66 -27c-25.333 0 -47 9 -65 27s-27 39.667 -27 65
c0 26.667 9 48.667 27 66s39.667 26 65 26zM283 857c0 -14.667 4.83301 -27.167 14.5 -37.5s21.834 -15.5 36.501 -15.5c15.333 0 28 5 38 15s15 22.667 15 38s-5 28 -15 38s-22.667 15 -38 15c-14.667 0 -26.834 -5.16699 -36.501 -15.5s-14.5 -22.833 -14.5 -37.5z" />
    <glyph glyph-name="AE" unicode="&#xc6;" horiz-adv-x="1000" 
d="M191 209l-78 -209h-105l207 512l84 207h512h132v-88h-388v-219h355v-86h-355v-240h396v-86h-494v209h-266zM457 295v336h-98l-132 -336h230z" />
    <glyph glyph-name="Ccedilla" unicode="&#xc7;" horiz-adv-x="723" 
d="M324 -18c-52 6.66699 -98.998 24.1641 -140.998 52.4971s-75.833 70 -101.5 125s-38.5 122.833 -38.5 203.5c0 72.667 13.333 137.167 40 193.5s65.667 100.333 117 132s111 47.5 179 47.5c86.667 0 155.667 -22.667 207 -68s80.666 -100.666 87.999 -165.999h-94
c-11.333 56 -36.5 94.667 -75.5 116s-80.833 32 -125.5 32c-68 0 -124.333 -24.667 -169 -74s-67 -119.666 -67 -210.999c0 -57.333 7.66699 -108.666 23 -153.999s40.666 -80.833 75.999 -106.5s81.666 -38.5 138.999 -38.5c43.333 0 85 14.667 125 44
s66.667 80.666 80 153.999h96c-11.333 -78 -36.5 -138.333 -75.5 -181s-78.333 -70 -118 -82s-78.167 -19 -115.5 -21l-35 -43c16 2.66699 26.333 4 31 4c30.667 0 52.334 -7.5 65.001 -22.5s19 -32.167 19 -51.5c0 -27.333 -10.5 -49.833 -31.5 -67.5
s-49.5 -26.5 -85.5 -26.5c-29.333 0 -61.333 8 -96 24l16 39c26.667 -10.667 48.667 -16 66 -16c36.667 0 55 14.333 55 43c0 14.667 -5.16699 24.834 -15.5 30.501s-20.833 8.5 -31.5 8.5c-7.33301 0 -20.333 -2.33301 -39 -7l-18 19z" />
    <glyph glyph-name="Egrave" unicode="&#xc8;" horiz-adv-x="668" 
d="M615 86v-86h-529v719h523v-88h-427v-219h394v-86h-394v-240h433zM309 793l-129 140h107l90 -140h-68z" />
    <glyph glyph-name="Eacute" unicode="&#xc9;" horiz-adv-x="668" 
d="M615 86v-86h-529v719h523v-88h-427v-219h394v-86h-394v-240h433zM484 933l-129 -140h-68l90 140h107z" />
    <glyph glyph-name="Ecircumflex" unicode="&#xca;" horiz-adv-x="668" 
d="M615 86v-86h-529v719h523v-88h-427v-219h394v-86h-394v-240h433zM332 885l-66 -92h-80l99 140h94l98 -140h-79z" />
    <glyph glyph-name="Edieresis" unicode="&#xcb;" horiz-adv-x="668" 
d="M615 86v-86h-529v719h523v-88h-427v-219h394v-86h-394v-240h433zM297 904v-101h-92v101h92zM459 904v-101h-92v101h92z" />
    <glyph glyph-name="Igrave" unicode="&#xcc;" horiz-adv-x="277" 
d="M188 719v-719h-98v719h98zM110 793l-129 140h107l90 -140h-68z" />
    <glyph glyph-name="Iacute" unicode="&#xcd;" horiz-adv-x="277" 
d="M188 719v-719h-98v719h98zM285 933l-129 -140h-68l90 140h107z" />
    <glyph glyph-name="Icircumflex" unicode="&#xce;" horiz-adv-x="277" 
d="M188 719v-719h-98v719h98zM133 885l-66 -92h-80l99 140h94l98 -140h-79z" />
    <glyph glyph-name="Idieresis" unicode="&#xcf;" horiz-adv-x="277" 
d="M188 719v-719h-98v719h98zM98 904v-101h-92v101h92zM260 904v-101h-92v101h92z" />
    <glyph glyph-name="Eth" unicode="&#xd0;" horiz-adv-x="723" 
d="M369 412v-85.999h-191v-244h187c42 0 78.833 10.833 110.5 32.5s56 53.667 73 96s25.5 93.166 25.5 152.499c0 88 -19.167 155.333 -57.5 202s-90.833 70 -157.5 70h-181v-223h191zM0 326.001l0.00195312 86h80v307h291c60.667 0 114.167 -14.667 160.5 -44
s81.666 -70.833 105.999 -124.5s36.5 -114.167 36.5 -181.5c0 -40 -6.66699 -87.667 -20 -143s-42.833 -106.833 -88.5 -154.5s-111.834 -71.5 -198.501 -71.5h-287v326h-80z" />
    <glyph glyph-name="Ntilde" unicode="&#xd1;" horiz-adv-x="723" 
d="M553 137v582h93v-719h-109l-367 580v-580h-94v719h115zM471 907h49.001c-3.33301 -31.333 -13.833 -57.5 -31.5 -78.5s-40.5 -31.5 -68.5 -31.5c-16.667 0 -40.334 6.16699 -71.001 18.5s-55.667 18.5 -75 18.5c-22 0 -37.667 -15 -47 -45h-47c10 72 44.667 108 104 108
c19.333 0 44.333 -5.66699 75 -17s51 -18 61 -20c28 0 45 15.667 51 47z" />
    <glyph glyph-name="Ograve" unicode="&#xd2;" horiz-adv-x="777" 
d="M639 359c0 57.333 -10 107.668 -30 151.001s-49.167 77.5 -87.5 102.5s-82.5 37.5 -132.5 37.5s-94.167 -12.333 -132.5 -37s-67.5 -58.834 -87.5 -102.501s-30 -94.167 -30 -151.5c0 -86.667 22.5 -157.167 67.5 -211.5s105.833 -81.5 182.5 -81.5
s137.5 27.167 182.5 81.5s67.5 124.833 67.5 211.5zM738 359.002c0 -58.667 -11.3311 -116.834 -33.998 -174.501s-60.334 -106.167 -113.001 -145.5s-120 -59 -202 -59s-149.5 19.667 -202.5 59s-90.833 87.833 -113.5 145.5s-34 115.834 -34 174.501
c0 58 11.333 115.833 34 173.5s60.167 106 112.5 145s120.166 58.5 203.499 58.5s151 -19.5 203 -58.5s89.333 -87.333 112 -145s34 -115.5 34 -173.5zM409.002 778.002l-129 140h107l90 -140h-68z" />
    <glyph glyph-name="Oacute" unicode="&#xd3;" horiz-adv-x="777" 
d="M639 359c0 57.333 -10 107.668 -30 151.001s-49.167 77.5 -87.5 102.5s-82.5 37.5 -132.5 37.5s-94.167 -12.333 -132.5 -37s-67.5 -58.834 -87.5 -102.501s-30 -94.167 -30 -151.5c0 -86.667 22.5 -157.167 67.5 -211.5s105.833 -81.5 182.5 -81.5
s137.5 27.167 182.5 81.5s67.5 124.833 67.5 211.5zM738 359.002c0 -58.667 -11.3311 -116.834 -33.998 -174.501s-60.334 -106.167 -113.001 -145.5s-120 -59 -202 -59s-149.5 19.667 -202.5 59s-90.833 87.833 -113.5 145.5s-34 115.834 -34 174.501
c0 58 11.333 115.833 34 173.5s60.167 106 112.5 145s120.166 58.5 203.499 58.5s151 -19.5 203 -58.5s89.333 -87.333 112 -145s34 -115.5 34 -173.5zM517.002 918.002l-129 -140h-68l90 140h107z" />
    <glyph glyph-name="Ocircumflex" unicode="&#xd4;" horiz-adv-x="777" 
d="M639 359c0 57.333 -10 107.668 -30 151.001s-49.167 77.5 -87.5 102.5s-82.5 37.5 -132.5 37.5s-94.167 -12.333 -132.5 -37s-67.5 -58.834 -87.5 -102.501s-30 -94.167 -30 -151.5c0 -86.667 22.5 -157.167 67.5 -211.5s105.833 -81.5 182.5 -81.5
s137.5 27.167 182.5 81.5s67.5 124.833 67.5 211.5zM738 359.002c0 -58.667 -11.3311 -116.834 -33.998 -174.501s-60.334 -106.167 -113.001 -145.5s-120 -59 -202 -59s-149.5 19.667 -202.5 59s-90.833 87.833 -113.5 145.5s-34 115.834 -34 174.501
c0 58 11.333 115.833 34 173.5s60.167 106 112.5 145s120.166 58.5 203.499 58.5s151 -19.5 203 -58.5s89.333 -87.333 112 -145s34 -115.5 34 -173.5zM398.002 870.002l-66 -92h-80l99 140h94l98 -140h-79z" />
    <glyph glyph-name="Otilde" unicode="&#xd5;" horiz-adv-x="777" 
d="M639 359c0 57.333 -10 107.668 -30 151.001s-49.167 77.5 -87.5 102.5s-82.5 37.5 -132.5 37.5s-94.167 -12.333 -132.5 -37s-67.5 -58.834 -87.5 -102.501s-30 -94.167 -30 -151.5c0 -86.667 22.5 -157.167 67.5 -211.5s105.833 -81.5 182.5 -81.5
s137.5 27.167 182.5 81.5s67.5 124.833 67.5 211.5zM738 359.002c0 -58.667 -11.3311 -116.834 -33.998 -174.501s-60.334 -106.167 -113.001 -145.5s-120 -59 -202 -59s-149.5 19.667 -202.5 59s-90.833 87.833 -113.5 145.5s-34 115.834 -34 174.501
c0 58 11.333 115.833 34 173.5s60.167 106 112.5 145s120.166 58.5 203.499 58.5s151 -19.5 203 -58.5s89.333 -87.333 112 -145s34 -115.5 34 -173.5zM519.002 907.002h49.001c-3.33301 -31.333 -13.833 -57.5 -31.5 -78.5s-40.5 -31.5 -68.5 -31.5
c-16.667 0 -40.334 6.16699 -71.001 18.5s-55.667 18.5 -75 18.5c-22 0 -37.667 -15 -47 -45h-47c10 72 44.667 108 104 108c19.333 0 44.333 -5.66699 75 -17s51 -18 61 -20c28 0 45 15.667 51 47z" />
    <glyph glyph-name="Odieresis" unicode="&#xd6;" horiz-adv-x="777" 
d="M639 359c0 57.333 -10 107.668 -30 151.001s-49.167 77.5 -87.5 102.5s-82.5 37.5 -132.5 37.5s-94.167 -12.333 -132.5 -37s-67.5 -58.834 -87.5 -102.501s-30 -94.167 -30 -151.5c0 -86.667 22.5 -157.167 67.5 -211.5s105.833 -81.5 182.5 -81.5
s137.5 27.167 182.5 81.5s67.5 124.833 67.5 211.5zM738 359.002c0 -58.667 -11.3311 -116.834 -33.998 -174.501s-60.334 -106.167 -113.001 -145.5s-120 -59 -202 -59s-149.5 19.667 -202.5 59s-90.833 87.833 -113.5 145.5s-34 115.834 -34 174.501
c0 58 11.333 115.833 34 173.5s60.167 106 112.5 145s120.166 58.5 203.499 58.5s151 -19.5 203 -58.5s89.333 -87.333 112 -145s34 -115.5 34 -173.5zM363.002 889.002v-101h-92v101h92zM525.002 889.002v-101h-92v101h92z" />
    <glyph glyph-name="Oslash" unicode="&#xd8;" horiz-adv-x="777" 
d="M590 543l-372.999 -405.999c43.333 -47.333 100.666 -71 171.999 -71c76.667 0 137.5 27.167 182.5 81.5s67.5 124.833 67.5 211.5c0 71.333 -16.333 132.666 -49 183.999zM189.001 170.001l375 408.001c-46 48 -104.333 72 -175 72c-50 0 -94.167 -12.333 -132.5 -37
s-67.5 -58.834 -87.5 -102.501s-30 -94.167 -30 -151.5c0 -74.667 16.667 -137.667 50 -189zM740.001 707.002l-83.998 -91.999c28 -34 48.667 -73.833 62 -119.5s20 -91.167 20 -136.5c0 -58.667 -11.333 -116.834 -34 -174.501s-60.334 -106.167 -113.001 -145.5
s-120 -59 -202 -59c-94.667 0 -173.667 28.667 -237 86l-80 -86l-31 28l82 90c-56 70.667 -84 157.667 -84 261c0 58 11.333 115.833 34 173.5s60.167 106 112.5 145s120.166 58.5 203.499 58.5c100 0 179.333 -29.333 238 -88l82 88z" />
    <glyph glyph-name="Ugrave" unicode="&#xd9;" horiz-adv-x="723" 
d="M78 232l-0.000976562 487h98v-469c0 -54 15.833 -98.167 47.5 -132.5s76.834 -51.5 135.501 -51.5c56.667 0 102.167 16.833 136.5 50.5s51.5 77.5 51.5 131.5v471h98v-483c0 -75.333 -27.167 -136.833 -81.5 -184.5s-125.5 -71.5 -213.5 -71.5
c-46.667 0 -91 9.83301 -133 29.5s-75.667 48.5 -101 86.5s-38 83.333 -38 136zM341.999 793l-129 140h107l90 -140h-68z" />
    <glyph glyph-name="Uacute" unicode="&#xda;" horiz-adv-x="723" 
d="M78 232l-0.000976562 487h98v-469c0 -54 15.833 -98.167 47.5 -132.5s76.834 -51.5 135.501 -51.5c56.667 0 102.167 16.833 136.5 50.5s51.5 77.5 51.5 131.5v471h98v-483c0 -75.333 -27.167 -136.833 -81.5 -184.5s-125.5 -71.5 -213.5 -71.5
c-46.667 0 -91 9.83301 -133 29.5s-75.667 48.5 -101 86.5s-38 83.333 -38 136zM516.999 933l-129 -140h-68l90 140h107z" />
    <glyph glyph-name="Ucircumflex" unicode="&#xdb;" horiz-adv-x="723" 
d="M78 232l-0.000976562 487h98v-469c0 -54 15.833 -98.167 47.5 -132.5s76.834 -51.5 135.501 -51.5c56.667 0 102.167 16.833 136.5 50.5s51.5 77.5 51.5 131.5v471h98v-483c0 -75.333 -27.167 -136.833 -81.5 -184.5s-125.5 -71.5 -213.5 -71.5
c-46.667 0 -91 9.83301 -133 29.5s-75.667 48.5 -101 86.5s-38 83.333 -38 136zM364.999 885l-66 -92h-80l99 140h94l98 -140h-79z" />
    <glyph glyph-name="Udieresis" unicode="&#xdc;" horiz-adv-x="723" 
d="M78 232l-0.000976562 487h98v-469c0 -54 15.833 -98.167 47.5 -132.5s76.834 -51.5 135.501 -51.5c56.667 0 102.167 16.833 136.5 50.5s51.5 77.5 51.5 131.5v471h98v-483c0 -75.333 -27.167 -136.833 -81.5 -184.5s-125.5 -71.5 -213.5 -71.5
c-46.667 0 -91 9.83301 -133 29.5s-75.667 48.5 -101 86.5s-38 83.333 -38 136zM329.999 904v-101h-92v101h92zM491.999 904v-101h-92v101h92z" />
    <glyph glyph-name="Yacute" unicode="&#xdd;" horiz-adv-x="668" 
d="M285 0v287l-271 432h113l205 -346l207 346h113l-271 -432v-287h-96zM517 933l-129 -140h-68l90 140h107z" />
    <glyph glyph-name="Thorn" unicode="&#xde;" horiz-adv-x="668" 
d="M182 516v-250h193c97.333 0 146 43.333 146 130c0 80 -47.333 120 -142 120h-197zM86 0l0.000976562 719h96v-119h226c43.333 0 81.166 -8.83301 113.499 -26.5s57 -42 74 -73s25.5 -65.833 25.5 -104.5c0 -56.667 -17.5 -106.167 -52.5 -148.5s-88.5 -63.5 -160.5 -63.5
h-226v-184h-96z" />
    <glyph glyph-name="germandbls" unicode="&#xdf;" horiz-adv-x="611" 
d="M66 0l0.00585938 512.001v19c0 59.333 20.167 107.166 60.5 143.499s97.166 54.5 170.499 54.5s131.666 -16.667 174.999 -50s65 -77.333 65 -132c0 -66 -27.333 -115 -82 -147c23.333 -6.66699 43.666 -18.834 60.999 -36.501s30.666 -38.167 39.999 -61.5
s14 -44.666 14 -63.999c0 -57.333 -10.667 -104.833 -32 -142.5s-50.833 -65.667 -88.5 -84s-81.5 -27.5 -131.5 -27.5c-17.333 0 -34.666 2.66699 -51.999 8v74c15.333 -2 29.666 -3 42.999 -3c114 0 171 50 171 150c0 94 -57 141 -171 141
c-17.333 0 -30.333 -1.33301 -39 -4v78c5.33301 0 9.66602 -0.166992 12.999 -0.5s6.66602 -0.833008 9.99902 -1.5c56 0 96 10.5 120 31.5s36 48.167 36 81.5c0 34 -13 61.333 -39 82s-63.667 31 -113 31c-53.333 0 -90.5 -12 -111.5 -36s-31.5 -59.333 -31.5 -106v-510
h-88z" />
    <glyph glyph-name="agrave" unicode="&#xe0;" 
d="M35 141c3.33301 42.667 17.4971 77.8311 42.4971 105.498s71.5 46.5 139.5 56.5c24.667 1.33301 49.834 2.83301 75.501 4.5s47.5 7.16699 65.5 16.5s27 25.666 27 48.999c0 58.667 -40.333 89.334 -121 92.001c-75.333 0 -115.666 -34 -120.999 -102h-82
c-3.33301 26 2.33398 52.833 17.001 80.5s38.167 50.167 70.5 67.5s72.166 26 119.499 26c57.333 0 105.5 -11.167 144.5 -33.5s58.5 -56.833 58.5 -103.5v-298c0 -15.333 1.5 -26 4.5 -32s9.83301 -9.66699 20.5 -11c12 2.66699 23 4.33398 33 5.00098v-64
c-10 -6.66699 -29.333 -10 -58 -10c-51.333 0 -78.666 26 -81.999 78c-49.333 -53.333 -112 -81.333 -188 -84c-47.333 0 -86.833 14.833 -118.5 44.5s-48.167 63.834 -49.5 102.501c1.33301 2.66699 2 6 2 10zM382.997 267.997
c-6.66699 -8.66699 -36.833 -17.168 -90.5 -25.501s-95.667 -19.666 -126 -33.999s-43.5 -39.5 -39.5 -75.5c5.33301 -49.333 36 -75.333 92 -78c39.333 2.66699 76.5 14.167 111.5 34.5s52.5 48.5 52.5 84.5v94zM308.998 593.996l-129 140h107l90 -140h-68z" />
    <glyph glyph-name="aacute" unicode="&#xe1;" 
d="M35 141c3.33301 42.667 17.4971 77.8311 42.4971 105.498s71.5 46.5 139.5 56.5c24.667 1.33301 49.834 2.83301 75.501 4.5s47.5 7.16699 65.5 16.5s27 25.666 27 48.999c0 58.667 -40.333 89.334 -121 92.001c-75.333 0 -115.666 -34 -120.999 -102h-82
c-3.33301 26 2.33398 52.833 17.001 80.5s38.167 50.167 70.5 67.5s72.166 26 119.499 26c57.333 0 105.5 -11.167 144.5 -33.5s58.5 -56.833 58.5 -103.5v-298c0 -15.333 1.5 -26 4.5 -32s9.83301 -9.66699 20.5 -11c12 2.66699 23 4.33398 33 5.00098v-64
c-10 -6.66699 -29.333 -10 -58 -10c-51.333 0 -78.666 26 -81.999 78c-49.333 -53.333 -112 -81.333 -188 -84c-47.333 0 -86.833 14.833 -118.5 44.5s-48.167 63.834 -49.5 102.501c1.33301 2.66699 2 6 2 10zM382.997 267.997
c-6.66699 -8.66699 -36.833 -17.168 -90.5 -25.501s-95.667 -19.666 -126 -33.999s-43.5 -39.5 -39.5 -75.5c5.33301 -49.333 36 -75.333 92 -78c39.333 2.66699 76.5 14.167 111.5 34.5s52.5 48.5 52.5 84.5v94zM366.998 733.996l-129 -140h-68l90 140h107z" />
    <glyph glyph-name="acircumflex" unicode="&#xe2;" 
d="M35 141c3.33301 42.667 17.4971 77.8311 42.4971 105.498s71.5 46.5 139.5 56.5c24.667 1.33301 49.834 2.83301 75.501 4.5s47.5 7.16699 65.5 16.5s27 25.666 27 48.999c0 58.667 -40.333 89.334 -121 92.001c-75.333 0 -115.666 -34 -120.999 -102h-82
c-3.33301 26 2.33398 52.833 17.001 80.5s38.167 50.167 70.5 67.5s72.166 26 119.499 26c57.333 0 105.5 -11.167 144.5 -33.5s58.5 -56.833 58.5 -103.5v-298c0 -15.333 1.5 -26 4.5 -32s9.83301 -9.66699 20.5 -11c12 2.66699 23 4.33398 33 5.00098v-64
c-10 -6.66699 -29.333 -10 -58 -10c-51.333 0 -78.666 26 -81.999 78c-49.333 -53.333 -112 -81.333 -188 -84c-47.333 0 -86.833 14.833 -118.5 44.5s-48.167 63.834 -49.5 102.501c1.33301 2.66699 2 6 2 10zM382.997 267.997
c-6.66699 -8.66699 -36.833 -17.168 -90.5 -25.501s-95.667 -19.666 -126 -33.999s-43.5 -39.5 -39.5 -75.5c5.33301 -49.333 36 -75.333 92 -78c39.333 2.66699 76.5 14.167 111.5 34.5s52.5 48.5 52.5 84.5v94zM280.998 685.996l-66 -92h-80l99 140h94l98 -140h-79z" />
    <glyph glyph-name="atilde" unicode="&#xe3;" 
d="M35 141c3.33301 42.667 17.4971 77.8311 42.4971 105.498s71.5 46.5 139.5 56.5c24.667 1.33301 49.834 2.83301 75.501 4.5s47.5 7.16699 65.5 16.5s27 25.666 27 48.999c0 58.667 -40.333 89.334 -121 92.001c-75.333 0 -115.666 -34 -120.999 -102h-82
c-3.33301 26 2.33398 52.833 17.001 80.5s38.167 50.167 70.5 67.5s72.166 26 119.499 26c57.333 0 105.5 -11.167 144.5 -33.5s58.5 -56.833 58.5 -103.5v-298c0 -15.333 1.5 -26 4.5 -32s9.83301 -9.66699 20.5 -11c12 2.66699 23 4.33398 33 5.00098v-64
c-10 -6.66699 -29.333 -10 -58 -10c-51.333 0 -78.666 26 -81.999 78c-49.333 -53.333 -112 -81.333 -188 -84c-47.333 0 -86.833 14.833 -118.5 44.5s-48.167 63.834 -49.5 102.501c1.33301 2.66699 2 6 2 10zM382.997 267.997
c-6.66699 -8.66699 -36.833 -17.168 -90.5 -25.501s-95.667 -19.666 -126 -33.999s-43.5 -39.5 -39.5 -75.5c5.33301 -49.333 36 -75.333 92 -78c39.333 2.66699 76.5 14.167 111.5 34.5s52.5 48.5 52.5 84.5v94zM401.998 722.996h49.001
c-3.33301 -31.333 -13.833 -57.5 -31.5 -78.5s-40.5 -31.5 -68.5 -31.5c-16.667 0 -40.334 6.16699 -71.001 18.5s-55.667 18.5 -75 18.5c-22 0 -37.667 -15 -47 -45h-47c10 72 44.667 108 104 108c19.333 0 44.333 -5.66699 75 -17s51 -18 61 -20c28 0 45 15.667 51 47z
" />
    <glyph glyph-name="adieresis" unicode="&#xe4;" 
d="M35 141c3.33301 42.667 17.4971 77.8311 42.4971 105.498s71.5 46.5 139.5 56.5c24.667 1.33301 49.834 2.83301 75.501 4.5s47.5 7.16699 65.5 16.5s27 25.666 27 48.999c0 58.667 -40.333 89.334 -121 92.001c-75.333 0 -115.666 -34 -120.999 -102h-82
c-3.33301 26 2.33398 52.833 17.001 80.5s38.167 50.167 70.5 67.5s72.166 26 119.499 26c57.333 0 105.5 -11.167 144.5 -33.5s58.5 -56.833 58.5 -103.5v-298c0 -15.333 1.5 -26 4.5 -32s9.83301 -9.66699 20.5 -11c12 2.66699 23 4.33398 33 5.00098v-64
c-10 -6.66699 -29.333 -10 -58 -10c-51.333 0 -78.666 26 -81.999 78c-49.333 -53.333 -112 -81.333 -188 -84c-47.333 0 -86.833 14.833 -118.5 44.5s-48.167 63.834 -49.5 102.501c1.33301 2.66699 2 6 2 10zM382.997 267.997
c-6.66699 -8.66699 -36.833 -17.168 -90.5 -25.501s-95.667 -19.666 -126 -33.999s-43.5 -39.5 -39.5 -75.5c5.33301 -49.333 36 -75.333 92 -78c39.333 2.66699 76.5 14.167 111.5 34.5s52.5 48.5 52.5 84.5v94zM245.998 704.996v-101h-92v101h92zM407.998 704.996v-101
h-92v101h92z" />
    <glyph glyph-name="aring" unicode="&#xe5;" 
d="M35 141c3.33301 42.667 17.4971 77.8311 42.4971 105.498s71.5 46.5 139.5 56.5c24.667 1.33301 49.834 2.83301 75.501 4.5s47.5 7.16699 65.5 16.5s27 25.666 27 48.999c0 58.667 -40.333 89.334 -121 92.001c-75.333 0 -115.666 -34 -120.999 -102h-82
c-3.33301 26 2.33398 52.833 17.001 80.5s38.167 50.167 70.5 67.5s72.166 26 119.499 26c57.333 0 105.5 -11.167 144.5 -33.5s58.5 -56.833 58.5 -103.5v-298c0 -15.333 1.5 -26 4.5 -32s9.83301 -9.66699 20.5 -11c12 2.66699 23 4.33398 33 5.00098v-64
c-10 -6.66699 -29.333 -10 -58 -10c-51.333 0 -78.666 26 -81.999 78c-49.333 -53.333 -112 -81.333 -188 -84c-47.333 0 -86.833 14.833 -118.5 44.5s-48.167 63.834 -49.5 102.501c1.33301 2.66699 2 6 2 10zM382.997 267.997
c-6.66699 -8.66699 -36.833 -17.168 -90.5 -25.501s-95.667 -19.666 -126 -33.999s-43.5 -39.5 -39.5 -75.5c5.33301 -49.333 36 -75.333 92 -78c39.333 2.66699 76.5 14.167 111.5 34.5s52.5 48.5 52.5 84.5v94zM280.998 755.996c18.667 0 34.667 -4 48 -12
s24 -18.667 32 -32s12 -29.333 12 -48c0 -25.333 -8.66699 -47 -26 -65s-39.333 -27 -66 -27c-25.333 0 -47 9 -65 27s-27 39.667 -27 65c0 26.667 9 48.667 27 66s39.667 26 65 26zM229.998 663.996c0 -14.667 4.83301 -27.167 14.5 -37.5s21.834 -15.5 36.501 -15.5
c15.333 0 28 5 38 15s15 22.667 15 38s-5 28 -15 38s-22.667 15 -38 15c-14.667 0 -26.834 -5.16699 -36.501 -15.5s-14.5 -22.833 -14.5 -37.5z" />
    <glyph glyph-name="ae" unicode="&#xe6;" horiz-adv-x="889" 
d="M465 303l290.999 0.000976562c-5.33301 104 -54.333 156 -147 156c-39.333 0 -73.166 -15.833 -101.499 -47.5s-42.5 -67.834 -42.5 -108.501zM751.999 164.001h88.001c-1.33301 -17.333 -9.83301 -40.833 -25.5 -70.5s-38.5 -54.167 -68.5 -73.5
c-34.667 -24 -81.667 -36 -141 -36c-38 0 -70 6.16699 -96 18.5s-45.833 25.833 -59.5 40.5s-26.167 31.667 -37.5 51c-48 -73.333 -119 -110 -213 -110c-47.333 0 -86.5 13.833 -117.5 41.5s-46.5 64.167 -46.5 109.5c0 35.333 10.833 69.5 32.5 102.5
s64.167 53.5 127.5 61.5l145 19c30 2.66699 45 23 45 61c0 57.333 -41 86 -123 86c-71.333 0 -111 -34 -119 -102h-82c2.66699 116 74.667 174 216 174c43.333 0 77.166 -6.33301 101.499 -19s47.166 -31 68.499 -55c22 22 45.333 39.833 70 53.5s59.334 20.5 104.001 20.5
c49.333 0 91 -12.167 125 -36.5s59.5 -59.333 76.5 -105s25.5 -100.167 25.5 -163.5h-383c0 -114 50.667 -171 152 -171c37.333 0 68.5 11.333 93.5 34s38.833 45.667 41.5 69zM383 180.001l-0.00292969 86.002c-15.333 -10.667 -63.666 -21.334 -144.999 -32.001
c-31.333 -4.66699 -57.666 -12.834 -78.999 -24.501s-32 -32.167 -32 -61.5c0 -60.667 31.333 -91 94 -91c42.667 0 80.334 12 113.001 36s49 53 49 87z" />
    <glyph glyph-name="ccedilla" unicode="&#xe7;" horiz-adv-x="500" 
d="M217 -12c-58 10.667 -103.828 39.3311 -137.495 85.998s-50.5 104 -50.5 172c0 86 21.167 156 63.5 210s105.166 81 188.499 81c63.333 0 110.666 -18.5 141.999 -55.5s49.333 -82.167 54 -135.5h-84c-12.667 75.333 -54.334 113 -125.001 113
c-50 0 -86.667 -19.333 -110 -58s-35 -85 -35 -139c0 -134 47.667 -201 143 -201c30.667 0 57.5 10.833 80.5 32.5s38.5 51.834 46.5 90.501h84c-6.66699 -52 -26.834 -98.333 -60.501 -139s-84.5 -61 -152.5 -61l-37 -47c14.667 2.66699 25 4 31 4
c29.333 0 50.666 -7.5 63.999 -22.5s20 -32.167 20 -51.5c0 -27.333 -10.5 -49.833 -31.5 -67.5s-49.5 -26.5 -85.5 -26.5c-30.667 0 -62.667 8 -96 24l16 39c26.667 -10.667 48.667 -16 66 -16c36.667 0 55 14.333 55 43c0 14.667 -5.33301 24.834 -16 30.501
s-21 8.5 -31 8.5c-6.66699 0 -19.667 -2.33301 -39 -7l-18 19z" />
    <glyph glyph-name="egrave" unicode="&#xe8;" 
d="M420 164l90.0049 -0.000976562c-3.33301 -19.333 -12.5 -43.166 -27.5 -71.499s-37.167 -52.5 -66.5 -72.5c-34.667 -24 -82.334 -36 -143.001 -36c-80.667 0 -142.334 30.667 -185.001 92c-32.667 47.333 -49 104 -49 170c0 98 26 173 78 225
c23.333 24 49.5 42.333 78.5 55s59.5 19 91.5 19c39.333 0 75.666 -9.83301 108.999 -29.5s59.666 -47.5 78.999 -83.5c27.333 -53.333 41 -120 41 -200h-383c0 -114 50.667 -171 152 -171c38 0 69.667 11.5 95 34.5s38.666 45.833 39.999 68.5zM133.005 302.999
l291 0.00195312c-2 45.333 -14.5 82.666 -37.5 111.999s-58.833 44 -107.5 44c-39.333 0 -73.5 -15.833 -102.5 -47.5s-43.5 -67.834 -43.5 -108.501zM291.005 594.001l-129 140h107l90 -140h-68z" />
    <glyph glyph-name="eacute" unicode="&#xe9;" 
d="M420 164l90.0049 -0.000976562c-3.33301 -19.333 -12.5 -43.166 -27.5 -71.499s-37.167 -52.5 -66.5 -72.5c-34.667 -24 -82.334 -36 -143.001 -36c-80.667 0 -142.334 30.667 -185.001 92c-32.667 47.333 -49 104 -49 170c0 98 26 173 78 225
c23.333 24 49.5 42.333 78.5 55s59.5 19 91.5 19c39.333 0 75.666 -9.83301 108.999 -29.5s59.666 -47.5 78.999 -83.5c27.333 -53.333 41 -120 41 -200h-383c0 -114 50.667 -171 152 -171c38 0 69.667 11.5 95 34.5s38.666 45.833 39.999 68.5zM133.005 302.999
l291 0.00195312c-2 45.333 -14.5 82.666 -37.5 111.999s-58.833 44 -107.5 44c-39.333 0 -73.5 -15.833 -102.5 -47.5s-43.5 -67.834 -43.5 -108.501zM384.005 734.001l-129 -140h-68l90 140h107z" />
    <glyph glyph-name="ecircumflex" unicode="&#xea;" 
d="M420 164l90.0049 -0.000976562c-3.33301 -19.333 -12.5 -43.166 -27.5 -71.499s-37.167 -52.5 -66.5 -72.5c-34.667 -24 -82.334 -36 -143.001 -36c-80.667 0 -142.334 30.667 -185.001 92c-32.667 47.333 -49 104 -49 170c0 98 26 173 78 225
c23.333 24 49.5 42.333 78.5 55s59.5 19 91.5 19c39.333 0 75.666 -9.83301 108.999 -29.5s59.666 -47.5 78.999 -83.5c27.333 -53.333 41 -120 41 -200h-383c0 -114 50.667 -171 152 -171c38 0 69.667 11.5 95 34.5s38.666 45.833 39.999 68.5zM133.005 302.999
l291 0.00195312c-2 45.333 -14.5 82.666 -37.5 111.999s-58.833 44 -107.5 44c-39.333 0 -73.5 -15.833 -102.5 -47.5s-43.5 -67.834 -43.5 -108.501zM281.005 686.001l-66 -92h-80l99 140h94l98 -140h-79z" />
    <glyph glyph-name="edieresis" unicode="&#xeb;" 
d="M420 164l90.0049 -0.000976562c-3.33301 -19.333 -12.5 -43.166 -27.5 -71.499s-37.167 -52.5 -66.5 -72.5c-34.667 -24 -82.334 -36 -143.001 -36c-80.667 0 -142.334 30.667 -185.001 92c-32.667 47.333 -49 104 -49 170c0 98 26 173 78 225
c23.333 24 49.5 42.333 78.5 55s59.5 19 91.5 19c39.333 0 75.666 -9.83301 108.999 -29.5s59.666 -47.5 78.999 -83.5c27.333 -53.333 41 -120 41 -200h-383c0 -114 50.667 -171 152 -171c38 0 69.667 11.5 95 34.5s38.666 45.833 39.999 68.5zM133.005 302.999
l291 0.00195312c-2 45.333 -14.5 82.666 -37.5 111.999s-58.833 44 -107.5 44c-39.333 0 -73.5 -15.833 -102.5 -47.5s-43.5 -67.834 -43.5 -108.501zM264.005 705.001v-101h-92v101h92zM426.005 705.001v-101h-92v101h92z" />
    <glyph glyph-name="igrave" unicode="&#xec;" horiz-adv-x="277" 
d="M182 523v-523h-88v523h88zM110 594l-129 140h107l90 -140h-68z" />
    <glyph glyph-name="iacute" unicode="&#xed;" horiz-adv-x="277" 
d="M182 523v-523h-88v523h88zM285 734l-129 -140h-68l90 140h107z" />
    <glyph glyph-name="icircumflex" unicode="&#xee;" horiz-adv-x="277" 
d="M182 523v-523h-88v523h88zM133 686l-66 -92h-80l99 140h94l98 -140h-79z" />
    <glyph glyph-name="idieresis" unicode="&#xef;" horiz-adv-x="277" 
d="M182 523v-523h-88v523h88zM98 705v-101h-92v101h92zM260 705v-101h-92v101h92z" />
    <glyph glyph-name="eth" unicode="&#xf0;" 
d="M125 254c0 -43.333 11.501 -86.333 34.501 -129s62.167 -64 117.5 -64c56 0 95.5 21.333 118.5 64s34.5 85.667 34.5 129s-11.333 86.333 -34 129s-62.334 64 -119.001 64c-56 0 -95.333 -21.333 -118 -64s-34 -85.667 -34 -129zM469.001 697l-107.999 -51
c51.333 -46 90.833 -99 118.5 -159s41.5 -123.333 41.5 -190c0 -108.667 -23.667 -188 -71 -238s-102.333 -75 -165 -75c-82 0 -144.167 26.667 -186.5 80s-63.5 116.666 -63.5 189.999c0 44.667 9 87.834 27 129.501s44.333 75.334 79 101.001s75.667 38.5 123 38.5
c55.333 0 99.333 -18.667 132 -56l2 2c-21.333 54.667 -58.333 102 -111 142l-123 -60l-43 41l119 56c-26.667 22 -56.667 39.667 -90 53l75 35c31.333 -10.667 61.666 -27.334 90.999 -50.001l106 50z" />
    <glyph glyph-name="ntilde" unicode="&#xf1;" 
d="M64 0l0.000976562 523.002h84v-76c8 16.667 26.333 36 55 58s64.667 32.667 108 32c57.333 -0.666992 101.5 -16.834 132.5 -48.501s46.5 -76.167 46.5 -133.5v-355h-88v324c0 41.333 -7.33301 74.166 -22 98.499s-41.667 36.5 -81 36.5
c-44.667 0 -80.334 -15 -107.001 -45s-40 -68.333 -40 -115v-299h-88zM420.001 723.002h49.001c-3.33301 -31.333 -13.833 -57.5 -31.5 -78.5s-40.5 -31.5 -68.5 -31.5c-16.667 0 -40.334 6.16699 -71.001 18.5s-55.667 18.5 -75 18.5c-22 0 -37.667 -15 -47 -45h-47
c10 72 44.667 108 104 108c19.333 0 44.333 -5.66699 75 -17s51 -18 61 -20c28 0 45 15.667 51 47z" />
    <glyph glyph-name="ograve" unicode="&#xf2;" 
d="M35 262c0 74 20.833 138.333 62.5 193s101.5 82 179.5 82c78.667 0 139 -27.333 181 -82s63 -119 63 -193c0 -74.667 -21.167 -139.667 -63.5 -195s-102.5 -83 -180.5 -83c-77.333 0 -137 27.833 -179 83.5s-63 120.5 -63 194.5zM125 262c0 -50 11.667 -96 35 -138
s62.333 -63 117 -63c56 0 95.5 21 118.5 63s34.5 88 34.5 138c0 28 -4.33301 57.167 -13 87.5s-24.5 56.5 -47.5 78.5s-53.833 33 -92.5 33c-55.333 0 -94.5 -20.833 -117.5 -62.5s-34.5 -87.167 -34.5 -136.5zM276 594l-129 140h107l90 -140h-68z" />
    <glyph glyph-name="oacute" unicode="&#xf3;" 
d="M35 262c0 74 20.833 138.333 62.5 193s101.5 82 179.5 82c78.667 0 139 -27.333 181 -82s63 -119 63 -193c0 -74.667 -21.167 -139.667 -63.5 -195s-102.5 -83 -180.5 -83c-77.333 0 -137 27.833 -179 83.5s-63 120.5 -63 194.5zM125 262c0 -50 11.667 -96 35 -138
s62.333 -63 117 -63c56 0 95.5 21 118.5 63s34.5 88 34.5 138c0 28 -4.33301 57.167 -13 87.5s-24.5 56.5 -47.5 78.5s-53.833 33 -92.5 33c-55.333 0 -94.5 -20.833 -117.5 -62.5s-34.5 -87.167 -34.5 -136.5zM418 734l-129 -140h-68l90 140h107z" />
    <glyph glyph-name="ocircumflex" unicode="&#xf4;" 
d="M35 262c0 74 20.833 138.333 62.5 193s101.5 82 179.5 82c78.667 0 139 -27.333 181 -82s63 -119 63 -193c0 -74.667 -21.167 -139.667 -63.5 -195s-102.5 -83 -180.5 -83c-77.333 0 -137 27.833 -179 83.5s-63 120.5 -63 194.5zM125 262c0 -50 11.667 -96 35 -138
s62.333 -63 117 -63c56 0 95.5 21 118.5 63s34.5 88 34.5 138c0 28 -4.33301 57.167 -13 87.5s-24.5 56.5 -47.5 78.5s-53.833 33 -92.5 33c-55.333 0 -94.5 -20.833 -117.5 -62.5s-34.5 -87.167 -34.5 -136.5zM281 686l-66 -92h-80l99 140h94l98 -140h-79z" />
    <glyph glyph-name="otilde" unicode="&#xf5;" 
d="M35 262c0 74 20.833 138.333 62.5 193s101.5 82 179.5 82c78.667 0 139 -27.333 181 -82s63 -119 63 -193c0 -74.667 -21.167 -139.667 -63.5 -195s-102.5 -83 -180.5 -83c-77.333 0 -137 27.833 -179 83.5s-63 120.5 -63 194.5zM125 262c0 -50 11.667 -96 35 -138
s62.333 -63 117 -63c56 0 95.5 21 118.5 63s34.5 88 34.5 138c0 28 -4.33301 57.167 -13 87.5s-24.5 56.5 -47.5 78.5s-53.833 33 -92.5 33c-55.333 0 -94.5 -20.833 -117.5 -62.5s-34.5 -87.167 -34.5 -136.5zM402 723h49.001c-3.33301 -31.333 -13.833 -57.5 -31.5 -78.5
s-40.5 -31.5 -68.5 -31.5c-16.667 0 -40.334 6.16699 -71.001 18.5s-55.667 18.5 -75 18.5c-22 0 -37.667 -15 -47 -45h-47c10 72 44.667 108 104 108c19.333 0 44.333 -5.66699 75 -17s51 -18 61 -20c28 0 45 15.667 51 47z" />
    <glyph glyph-name="odieresis" unicode="&#xf6;" 
d="M35 262c0 74 20.833 138.333 62.5 193s101.5 82 179.5 82c78.667 0 139 -27.333 181 -82s63 -119 63 -193c0 -74.667 -21.167 -139.667 -63.5 -195s-102.5 -83 -180.5 -83c-77.333 0 -137 27.833 -179 83.5s-63 120.5 -63 194.5zM125 262c0 -50 11.667 -96 35 -138
s62.333 -63 117 -63c56 0 95.5 21 118.5 63s34.5 88 34.5 138c0 28 -4.33301 57.167 -13 87.5s-24.5 56.5 -47.5 78.5s-53.833 33 -92.5 33c-55.333 0 -94.5 -20.833 -117.5 -62.5s-34.5 -87.167 -34.5 -136.5zM246 705v-101h-92v101h92zM408 705v-101h-92v101h92z" />
    <glyph glyph-name="oslash" unicode="&#xf8;" horiz-adv-x="611" 
d="M537 520l-70 -78.999c36 -48.667 54 -108.334 54 -179.001c0 -74.667 -21.167 -139.667 -63.5 -195s-102.5 -83 -180.5 -83c-64.667 0 -117.334 20.333 -158.001 61l-60 -68l-32 27l65 72c-38 50 -57 112 -57 186s20.833 138.333 62.5 193s101.5 82 179.5 82
c68.667 0 123.334 -21.333 164.001 -64l65 72zM150 143.001l237 267c-28 34 -64.667 51 -110 51c-55.333 0 -94.5 -20.833 -117.5 -62.5s-34.5 -87.167 -34.5 -136.5c0 -45.333 8.33301 -85 25 -119zM408 373.001l-234 -266c24 -30.667 58.333 -46 103 -46
c56 0 95.5 21 118.5 63s34.5 88 34.5 138c0 40 -7.33301 77 -22 111z" />
    <glyph glyph-name="ugrave" unicode="&#xf9;" 
d="M70 133v393.997h86v-379c0 -32 8.5 -56.167 25.5 -72.5s37.833 -25.166 62.5 -26.499c6.66699 1.33301 14.667 2 24 2c22.667 4.66699 44 14 64 28s36.333 32.333 49 55s19 48.334 19 77.001v316h88v-527h-88v55c-46.667 -52 -107 -78 -181 -78
c-45.333 0 -81.5 14.333 -108.5 43s-40.5 66.334 -40.5 113.001zM258 593.997l-129 140h107l90 -140h-68z" />
    <glyph glyph-name="uacute" unicode="&#xfa;" 
d="M70 133v393.997h86v-379c0 -32 8.5 -56.167 25.5 -72.5s37.833 -25.166 62.5 -26.499c6.66699 1.33301 14.667 2 24 2c22.667 4.66699 44 14 64 28s36.333 32.333 49 55s19 48.334 19 77.001v316h88v-527h-88v55c-46.667 -52 -107 -78 -181 -78
c-45.333 0 -81.5 14.333 -108.5 43s-40.5 66.334 -40.5 113.001zM418 733.997l-129 -140h-68l90 140h107z" />
    <glyph glyph-name="ucircumflex" unicode="&#xfb;" 
d="M70 133v393.997h86v-379c0 -32 8.5 -56.167 25.5 -72.5s37.833 -25.166 62.5 -26.499c6.66699 1.33301 14.667 2 24 2c22.667 4.66699 44 14 64 28s36.333 32.333 49 55s19 48.334 19 77.001v316h88v-527h-88v55c-46.667 -52 -107 -78 -181 -78
c-45.333 0 -81.5 14.333 -108.5 43s-40.5 66.334 -40.5 113.001zM281 685.997l-66 -92h-80l99 140h94l98 -140h-79z" />
    <glyph glyph-name="udieresis" unicode="&#xfc;" 
d="M70 133v393.997h86v-379c0 -32 8.5 -56.167 25.5 -72.5s37.833 -25.166 62.5 -26.499c6.66699 1.33301 14.667 2 24 2c22.667 4.66699 44 14 64 28s36.333 32.333 49 55s19 48.334 19 77.001v316h88v-527h-88v55c-46.667 -52 -107 -78 -181 -78
c-45.333 0 -81.5 14.333 -108.5 43s-40.5 66.334 -40.5 113.001zM246 704.997v-101h-92v101h92zM408 704.997v-101h-92v101h92z" />
    <glyph glyph-name="yacute" unicode="&#xfd;" horiz-adv-x="500" 
d="M252 96l141 426.999h95l-110.5 -309.5l-76.5 -203.5c-25.333 -64.667 -43.833 -109.5 -55.5 -134.5s-23.667 -44.167 -36 -57.5s-26.666 -22.166 -42.999 -26.499s-39.833 -6.5 -70.5 -6.5c-7.33301 0 -19.666 2.66699 -36.999 8v80c12 -5.33301 29.333 -8 52 -8
c16 0 28.167 2.5 36.5 7.5s16.166 15 23.499 30s18.666 42.167 33.999 81.5l-195 539h99zM433 733.999l-129 -140h-68l90 140h107z" />
    <glyph glyph-name="thorn" unicode="&#xfe;" 
d="M141 236c0 -62 14.999 -106.668 44.999 -134.001s63 -41 99 -41c46.667 0 81.834 18.333 105.501 55s35.5 85.334 35.5 146.001c0 131.333 -47.667 197 -143 197c-94.667 0 -142 -74.333 -142 -223zM56.999 -207.001l-0.000976562 510v416h88v-268h1
c18.667 26 38.5 46.833 59.5 62.5s52.167 23.5 93.5 23.5c34 0 64.833 -6.66699 92.5 -20s50.834 -31.5 69.501 -54.5s32.834 -50.167 42.501 -81.5s14.5 -66 14.5 -104c0 -77.333 -18.333 -145.5 -55 -204.5s-95.334 -88.5 -176.001 -88.5
c-63.333 0 -110.333 23.667 -141 71h-1v-262h-88z" />
    <glyph glyph-name="ydieresis" unicode="&#xff;" horiz-adv-x="500" 
d="M252 96l141 426.999h95l-110.5 -309.5l-76.5 -203.5c-25.333 -64.667 -43.833 -109.5 -55.5 -134.5s-23.667 -44.167 -36 -57.5s-26.666 -22.166 -42.999 -26.499s-39.833 -6.5 -70.5 -6.5c-7.33301 0 -19.666 2.66699 -36.999 8v80c12 -5.33301 29.333 -8 52 -8
c16 0 28.167 2.5 36.5 7.5s16.166 15 23.499 30s18.666 42.167 33.999 81.5l-195 539h99zM213 704.999v-101h-92v101h92zM375 704.999v-101h-92v101h92z" />
    <glyph glyph-name="OE" unicode="&#x152;" horiz-adv-x="1000" 
d="M518 230l-0.000976562 261.999c0 50 -16.167 89.5 -48.5 118.5s-74.166 43.5 -125.499 43.5c-58.667 0 -103.5 -18 -134.5 -54s-51.167 -77.333 -60.5 -124s-14 -92.667 -14 -138c0 -57.333 8.33301 -107 25 -149c18.667 -43.333 42.667 -75.166 72 -95.499
s71 -30.5 125 -30.5c39.333 0 76 14 110 42s51 69.667 51 125zM522.999 644.999l0.000976562 74h440v-88h-350v-219h334v-86h-334v-240h352v-86h-444v74h-1c-14.667 -18.667 -29 -34.5 -43 -47.5s-33.333 -24 -58 -33s-55 -13.5 -91 -13.5
c-60.667 0 -113.334 16 -158.001 48s-78.334 76.167 -101.001 132.5s-34 121.166 -34 194.499c0 56.667 9 113.834 27 171.501s50 107 96 148s107.333 61.5 184 61.5c82.667 0 142.334 -30.333 179.001 -91h2z" />
    <glyph glyph-name="oe" unicode="&#x153;" horiz-adv-x="943" 
d="M520 303l290.998 0.00195312c-2 45.333 -14.667 82.666 -38 111.999s-59.666 44 -108.999 44c-39.333 0 -73.166 -15.833 -101.499 -47.5s-42.5 -67.834 -42.5 -108.501zM806.998 164.002l87.999 0.000976562c-1.33301 -18.667 -9.66602 -42.334 -24.999 -71.001
s-37.666 -53 -66.999 -73c-38.667 -24 -86.334 -36 -143.001 -36c-82 0 -147 34 -195 102c-19.333 -40 -47 -67 -83 -81s-71 -21 -105 -21c-77.333 0 -137 27.833 -179 83.5s-63 120.5 -63 194.5s20.833 138.333 62.5 193s101.5 82 179.5 82c42.667 0 81.334 -9 116.001 -27
s62 -44 82 -78c45.333 70 113 105 203 105c73.333 0 129 -26.833 167 -80.5s57 -128.5 57 -224.5h-382c0 -114 50.667 -171 152 -171c38 0 69.667 11.5 95 34.5s38.666 45.833 39.999 68.5zM124.997 262.003c0 -50 11.667 -96 35 -138s62.333 -63 117 -63
c56 0 95.5 21 118.5 63s34.5 88 34.5 138c0 28 -4.33301 57.167 -13 87.5s-24.5 56.5 -47.5 78.5s-53.833 33 -92.5 33c-55.333 0 -94.5 -20.833 -117.5 -62.5s-34.5 -87.167 -34.5 -136.5z" />
    <glyph glyph-name="florin" unicode="&#x192;" 
d="M158 6l12.002 68.0029c17.333 -6.66699 31.666 -10.334 42.999 -11.001c35.333 0.666992 59.333 33.667 72 99l59 313h-86v54h97c12 70.667 28.333 124.5 49 161.5s54 55.5 100 55.5c20 0 39.667 -2.66699 59 -8l-10 -64c-14.667 9.33301 -30.334 14 -47.001 14
c-42 0 -68 -53 -78 -159h90v-54h-102l-51 -282c-10.667 -60.667 -29 -107.834 -55 -141.501s-62.333 -50.834 -109 -51.501z" />
    <glyph glyph-name="circumflex" unicode="&#x2c6;" horiz-adv-x="332" 
d="M166 686l-66 -92h-80l99 140h94l98 -140h-79z" />
    <glyph glyph-name="tilde" unicode="&#x2dc;" horiz-adv-x="332" 
d="M287 723h49.001c-3.33301 -31.333 -13.833 -57.5 -31.5 -78.5s-40.5 -31.5 -68.5 -31.5c-16.667 0 -40.334 6.16699 -71.001 18.5s-55.667 18.5 -75 18.5c-22 0 -37.667 -15 -47 -45h-47c10 72 44.667 108 104 108c19.333 0 44.333 -5.66699 75 -17s51 -18 61 -20
c28 0 45 15.667 51 47z" />
    <glyph glyph-name="endash" unicode="&#x2013;" 
d="M-8 252v70h567v-70h-567z" />
    <glyph glyph-name="emdash" unicode="&#x2014;" horiz-adv-x="1000" 
d="M1000 313v-73h-998h-2v73h998h2z" />
    <glyph glyph-name="quoteleft" unicode="&#x2018;" horiz-adv-x="223" 
d="M64 469v105c0 41.333 9 75.333 27 102s43.667 43 77 49v-45c-22 -8 -36.333 -19.5 -43 -34.5s-10 -38.167 -10 -69.5h53v-107h-104z" />
    <glyph glyph-name="quoteright" unicode="&#x2019;" horiz-adv-x="223" 
d="M105 611h-52v108h103v-108c0 -35.333 -8.33301 -67 -25 -95s-42.667 -45.667 -78 -53v47c36 6 53.333 39.667 52 101z" />
    <glyph glyph-name="quotedblleft" unicode="&#x201c;" horiz-adv-x="332" 
d="M307 576v-107h-104v99c0 41.333 7.66699 75.5 23 102.5s42.333 45.167 81 54.5v-47c-35.333 -5.33301 -53 -39.333 -53 -102h53zM141 576v-106.999h-104v99c0 87.333 34.667 139.666 104 156.999v-47c-35.333 -5.33301 -53 -39.333 -53 -102h53z" />
    <glyph glyph-name="quotedblright" unicode="&#x201d;" horiz-adv-x="332" 
d="M25 611v108h104v-100c0 -87.333 -34.667 -139.333 -104 -156v47c35.333 5.33301 53 39 53 101h-53zM191 611v108h104v-100c0 -87.333 -34.667 -139.333 -104 -156v47c35.333 5.33301 53 39 53 101h-53z" />
    <glyph glyph-name="quotedblbase" unicode="&#x201e;" horiz-adv-x="332" 
d="M25 0v105h104v-97c0 -88.667 -34.667 -141.334 -104 -158.001v46c35.333 6.66699 53 41.334 53 104.001h-53zM191 0v105h104v-97c0 -88.667 -34.667 -141.334 -104 -158.001v46c35.333 6.66699 53 41.334 53 104.001h-53z" />
    <glyph glyph-name="dagger" unicode="&#x2020;" 
d="M232 506v213h94v-213h188v-74h-188v-592h-94v592h-189v74h189z" />
    <glyph glyph-name="daggerdbl" unicode="&#x2021;" 
d="M43 516h189v203h94v-203h188v-77h-188v-320h188v-76h-188v-203h-94v203h-189v76h189v320h-189v77z" />
    <glyph glyph-name="bullet" unicode="&#x2022;" horiz-adv-x="350" 
d="M166 240c-33.333 0 -62.5 12.167 -87.5 36.5s-37.5 53.833 -37.5 88.5c0 35.333 12.333 65 37 89s54 36 88 36c34.667 0 64.167 -12.167 88.5 -36.5s36.5 -53.833 36.5 -88.5c0 -34 -12.333 -63.333 -37 -88s-54 -37 -88 -37z" />
    <glyph glyph-name="ellipsis" unicode="&#x2026;" horiz-adv-x="1000" 
d="M219 105v-105h-104v105h104zM553 105v-105h-106v105h106zM885 105v-105h-104v105h104z" />
    <glyph glyph-name="perthousand" unicode="&#x2030;" horiz-adv-x="1000" 
d="M6 539c0 42.667 14.999 79.332 44.999 109.999s67 46 111 46c27.333 0 53.166 -7 77.499 -21s43.5 -33.167 57.5 -57.5s21 -50.166 21 -77.499c0 -43.333 -15.167 -80.166 -45.5 -110.499s-67.166 -45.5 -110.499 -45.5s-80.166 15.167 -110.499 45.5
s-45.5 67.166 -45.5 110.499zM67.999 538.998c0 -26 9.16699 -48.167 27.5 -66.5s40.5 -27.5 66.5 -27.5c25.333 0 47.333 9.33301 66 28s28 40.667 28 66c0 26.667 -9.33301 48.667 -28 66s-40.667 26 -66 26c-26 0 -48.167 -8.83301 -66.5 -26.5s-27.5 -39.5 -27.5 -65.5z
M317.999 147.998c0 43.333 15.333 80.334 46 111.001s67.667 46 111 46c27.333 0 53.166 -7.16699 77.499 -21.5s43.5 -33.833 57.5 -58.5s21 -50.334 21 -77.001c0 -42 -15.167 -78.5 -45.5 -109.5s-67.166 -46.5 -110.499 -46.5c-42.667 0 -79.5 15.5 -110.5 46.5
s-46.5 67.5 -46.5 109.5zM380.999 147.999c0 -25.333 9.16504 -47.168 27.498 -65.501s40.5 -27.5 66.5 -27.5c24.667 0 46.334 9.33301 65.001 28s28 40.334 28 65.001c0 26 -9.16699 48.167 -27.5 66.5s-40.166 27.5 -65.499 27.5c-26 0 -48.167 -9.16699 -66.5 -27.5
s-27.5 -40.5 -27.5 -66.5zM681.997 147.997c0 43.333 14.999 80.334 44.999 111.001s67 46 111 46c27.333 0 53.166 -7.16699 77.499 -21.5s43.5 -33.833 57.5 -58.5s21 -50.334 21 -77.001c0 -42 -15.167 -78.5 -45.5 -109.5s-67.166 -46.5 -110.499 -46.5
s-80.166 15.5 -110.499 46.5s-45.5 67.5 -45.5 109.5zM743.996 147.998c0 -25.333 9.16699 -47.168 27.5 -65.501s40.5 -27.5 66.5 -27.5c25.333 0 47.333 9.33301 66 28s28 40.334 28 65.001c0 26 -9.16699 48.167 -27.5 66.5s-40.5 27.5 -66.5 27.5
s-48.167 -9.16699 -66.5 -27.5s-27.5 -40.5 -27.5 -66.5zM542.996 702.996l-397 -723h-54l396 723h55z" />
    <glyph glyph-name="guilsinglleft" unicode="&#x2039;" horiz-adv-x="332" 
d="M244 195v-88l-156 123v92l156 123v-86l-105 -84z" />
    <glyph glyph-name="guilsinglright" unicode="&#x203a;" horiz-adv-x="332" 
d="M191 277l-103 80v88l156 -123v-92l-156 -123v88z" />
    <glyph glyph-name="trademark" unicode="&#x2122;" horiz-adv-x="1000" 
d="M557 719l119 -305l115 305h111v-414h-72v336l-131 -336h-51l-130 336v-336h-73v414h112zM373 719v-61h-127v-353h-74v353h-127v61h328z" />
    <glyph glyph-name="glyph1" horiz-adv-x="0" 
 />
    <glyph glyph-name="fi" horiz-adv-x="500" 
d="M8 527h70.001v110c0 33.333 10.167 58.833 30.5 76.5s44.166 26.5 71.499 26.5h72v-80h-41c-18 0 -30.333 -2 -37 -6s-10 -15 -10 -33v-94h88v-80h-88v-447h-86v447h-70v80zM354.001 732h85v-111h-85v111zM354.001 527h78v-527h-78v527z" />
    <glyph glyph-name="fl" horiz-adv-x="500" 
d="M262 449h-88v-449h-88v449h-72v74h72v90c0 77.333 45 116 135 116c8.66699 0 16 -0.166992 22 -0.5s12.333 -0.833008 19 -1.5v-81c-8 1.33301 -20.333 2 -37 2c-34 0 -51 -20 -51 -60v-65h88v-74zM432 719v-719h-88v719h88z" />
    <glyph glyph-name="dotlessi" horiz-adv-x="277" 
d="M182 523v-523h-88v523h88z" />
    <glyph glyph-name="breve" horiz-adv-x="332" 
d="M273 730h47c-10 -89.333 -62.667 -134 -158 -134c-90 0 -140 44.667 -150 134h49c10.667 -28.667 23.5 -48.834 38.5 -60.501s38.5 -17.5 70.5 -17.5c35.333 0 59.833 7.33301 73.5 22s23.5 33.334 29.5 56.001z" />
    <glyph glyph-name="ring" horiz-adv-x="332" 
d="M166 756c18.667 0 34.667 -4 48 -12s24 -18.667 32 -32s12 -29.333 12 -48c0 -25.333 -8.66699 -47 -26 -65s-39.333 -27 -66 -27c-25.333 0 -47 9 -65 27s-27 39.667 -27 65c0 26.667 9 48.667 27 66s39.667 26 65 26zM115 664c0 -14.667 4.83301 -27.167 14.5 -37.5
s21.834 -15.5 36.501 -15.5c15.333 0 28 5 38 15s15 22.667 15 38s-5 28 -15 38s-22.667 15 -38 15c-14.667 0 -26.834 -5.16699 -36.501 -15.5s-14.5 -22.833 -14.5 -37.5z" />
    </font>
</defs>
</svg>
